<svg xmlns="http://www.w3.org/2000/svg" viewBox="0 0 4680 3120"><g data-name="6"><path fill="#ffe5ca" d="M3781.07 1653.84c-270.2-91.47-86-66.26-257.45-662.2a690 690 0 0 0-31.23-86.47q-10.8-24.69-23.31-48.09C3254.89 455.52 2689.26 342.67 2578 671.94c-59 174.52-221.25 275.33-766 37.47-257.15-112.29-562.85 60.93-676.19 281.83-60 116.91-139.5 386.31-64.87 549.25 181.46 396.17-129 55.48-265.06 309.35-66.31 123.73-1.44 323.85 82.48 496.5a592.49 592.49 0 0 0 532 333.29l1786.64 2.91a741.94 741.94 0 0 0 672.17-425.17c124.14-262.88 147.08-520.54-98.1-603.53ZM3698.55 1040.05c-20.5-19.95-54.16 2.85-43.45 29.37l.24.57c7.82 19.1 19.8 36.15 30.13 54a348.6 348.6 0 0 1 45.59 198c17-56.8 29.86-116.55 20.62-175.11-6.27-39.81-24.63-79.09-53.13-106.83ZM3942.22 1146.71c-19.39 4.52-34.68 19.14-47.87 34.06a435.91 435.91 0 0 0-106 240.31c31.69-78 86.47-147.18 157.91-191.64 11-6.87 22.59-13.27 31.52-22.7s15-22.72 12.12-35.39c-4.34-19.43-28.28-29.16-47.68-24.64Z"/><path fill="#ffe5ca" d="M795.16 1462.29c-35.51-21-78.28-32.38-118.33-28.38-28.81 2.87-32.11 43.71-4.3 52.67l.6.2c20.1 6.36 41.2 8.19 61.91 11.82a364.57 364.57 0 0 1 185.75 93.5c-34.23-50.05-73.38-98.87-125.63-129.81ZM984 1365.56c1.56-13 3.82-26.09 2-39.12s-8.5-26.35-20.35-32.38c-18.16-9.25-41.06 2.93-49.78 20.85s-6.84 39.26-3.39 59.15c15.42 88.87 59.08 173.33 123.12 238.18-41.6-75.19-61.66-162.54-51.6-246.68Z"/><path fill="#ffbf85" d="M3485.65 2048.56c-214.77-57.33-68.35-41.53-204.64-415a379 379 0 0 0-24.82-54.2q-8.59-15.45-18.53-30.12c-170.25-251.65-619.85-322.36-708.27-116-46.87 109.37-64.62 103.3-687.93-7.68-217.55-38.74-379.67 65.11-458.41 207.78q-9.13 16.53-16.75 33.73c-49.46 111.44-50.48 240.34 8.85 342.45 144.23 248.26-146.2 2.78-254.34 161.87-93.22 137.14 139.7 424 205.75 500.54 7.58 8.78 34.35-1.16 36.79 1.54L3344 2689.41q9.39-8.58 18.74-17.49c222.69-211.92 419.34-544.25 122.91-623.36Z"/><path fill="#ffb93e" d="M3148.43 720.26s110.14-10.24 105.83-22.11-105.83 22.11-105.83 22.11ZM3000.83 751.11c4.3 11.89 105.83-22.11 105.83-22.11s-110.13 10.24-105.83 22.11Z"/><path fill="#f9572a" d="M3148.86 709.38s140.29-74.09 128-87.47-128 87.47-128 87.47ZM2970.37 831.36c12.31 13.38 128-87.46 128-87.46s-140.31 74.1-128 87.46ZM3024.28 571.38c-13.49 12.2 87.69 127.4 87.69 127.4s-74.2-139.59-87.69-127.4ZM3234.26 876.45c13.5-12.19-87.69-127.39-87.69-127.39s74.2 139.59 87.69 127.39ZM3151.41 731.78s149.29 54 151.05 36-151.05-36-151.05-36ZM2940.74 681.6c-1.77 18 151.05 36 151.05 36s-149.28-54.03-151.05-36Z"/><path fill="#ffd9a1" d="M2758.32 729.72c1.63 18 155.15 7.52 155.15 7.52s-156.78-25.58-155.15-7.52ZM2788.45 953.62c11.79 13.83 131.23-82.58 131.23-82.58s-143.02 68.75-131.23 82.58ZM2892.16 1048.8c16.45 7.84 85.85-128.63 85.85-128.63s-102.3 120.83-85.85 128.63ZM3073.55 1097c18.23.84 28.53-151.72 28.53-151.72s-46.75 150.84-28.53 151.72ZM3368.34 1046.3c13-12.68-92.31-124.13-92.31-124.13s79.27 136.83 92.31 124.13ZM3222.24 1096.75c17.25-5.9-29.86-151.46-29.86-151.46s12.62 157.37 29.86 151.46ZM2787.82 569c-3.68 17.75 146.37 51.68 146.37 51.68s-142.68-69.42-146.37-51.68ZM3254.39 579s127.42-94.29 113.22-105.67S3254.39 579 3254.39 579ZM3303 845.06s123.6 99.19 131.15 82.7-131.15-82.7-131.15-82.7ZM3336.86 793.44s149.4 53.72 151.13 35.68-151.13-35.68-151.13-35.68Z"/><path fill="#ffc76c" d="M2861.27 822.73c8 16.28 147.62-48.05 147.62-48.05s-155.63 31.77-147.62 48.05ZM3235.52 465.41c-17.63-4.65-60.18 142.28-60.18 142.28s77.81-137.63 60.18-142.28ZM3283.6 666.06s155.32-33.22 147.16-49.43-147.16 49.43-147.16 49.43ZM3034.48 451.52c-16.73 7.21 41.58 148.71 41.58 148.71s-24.84-155.92-41.58-148.71ZM2906.58 515.73c-9.51 15.47 120.13 97.85 120.13 97.85s-110.62-113.31-120.13-97.85ZM3039.49 1001.76c18.06 2.53 42.69-148.4 42.69-148.4s-60.75 145.87-42.69 148.4ZM3245.08 725.6s158.31 13.41 155.27-4.46-155.27 4.46-155.27 4.46ZM3240.36 973.47c15.29-9.89-66-139.72-66-139.72s50.71 149.61 66 139.72Z"/><path fill="#ffb93e" d="M3100.9 598.72c-12 4.28 22.26 105.16 22.26 105.16s-10.32-109.43-22.26-105.16ZM3154.2 850.53c12-4.27-22.26-105.15-22.26-105.15s10.31 109.43 22.26 105.15ZM3154.88 537.61c-18.24 0-21.2 152.9-21.2 152.9s39.44-152.93 21.2-152.9ZM3104.12 903.74c18.25 0 21.2-152.89 21.2-152.89s-39.44 152.92-21.2 152.89ZM3145.42 736.22s85.17 70.13 90.57 58.71-90.57-58.71-90.57-58.71ZM3019.1 654.33c-5.41 11.41 90.58 58.71 90.58 58.71s-85.17-70.13-90.58-58.71ZM3056.79 832.38c11.5 5.38 59.1-90 59.1-90s-70.59 84.62-59.1 90ZM3198.3 616.87c-11.49-5.37-59.09 90-59.09 90s70.58-84.62 59.09-90ZM1304.92 975.89s49.15-4.57 47.23-9.87-47.23 9.87-47.23 9.87ZM1239 989.66c1.92 5.29 47.24-9.88 47.24-9.88s-49.12 4.58-47.24 9.88Z"/><path fill="#f9572a" d="M1305.11 971s62.61-33.06 57.11-39-57.11 39-57.11 39ZM1225.45 1025.47c5.49 6 57.12-39 57.12-39s-62.57 33.03-57.12 39ZM1249.51 909.45c-6 5.44 39.13 56.85 39.13 56.85s-33.11-62.3-39.13-56.85ZM1343.22 1045.59c6-5.44-39.13-56.85-39.13-56.85s33.11 62.26 39.13 56.85ZM1306.24 981s66.63 24.11 67.42 16.06-67.42-16.06-67.42-16.06ZM1212.22 958.64c-.78 8.05 67.42 16.05 67.42 16.05s-66.64-24.1-67.42-16.05Z"/><path fill="#ffd9a1" d="M1130.81 980.11c.73 8 69.24 3.36 69.24 3.36s-69.96-11.42-69.24-3.36ZM1144.26 1080c5.26 6.17 58.57-36.85 58.57-36.85s-63.83 30.71-58.57 36.85ZM1190.55 1122.51c7.33 3.5 38.31-57.4 38.31-57.4s-45.66 53.89-38.31 57.4ZM1271.5 1144c8.13.38 12.73-67.71 12.73-67.71s-20.86 67.34-12.73 67.71ZM1403.05 1121.39c5.82-5.65-41.19-55.39-41.19-55.39s35.38 61.05 41.19 55.39ZM1337.86 1143.91c7.69-2.63-13.33-67.6-13.33-67.6s5.63 70.23 13.33 67.6ZM1144 908.39c-1.64 7.92 65.32 23.06 65.32 23.06s-63.7-30.99-65.32-23.06ZM1352.2 912.83s56.87-42.08 50.53-47.15-50.53 47.15-50.53 47.15ZM1373.89 1031.58s55.16 44.27 58.53 36.91-58.53-36.91-58.53-36.91ZM1389 1008.55s66.67 24 67.44 15.92-67.44-15.92-67.44-15.92Z"/><path fill="#ffc76c" d="M1176.76 1021.62c3.58 7.26 65.88-21.44 65.88-21.44s-69.46 14.17-65.88 21.44ZM1343.78 862.15c-7.87-2.07-26.86 63.5-26.86 63.5s34.73-61.42 26.86-63.5ZM1365.24 951.7s69.32-14.83 65.67-22.06-65.67 22.06-65.67 22.06ZM1254.06 856c-7.47 3.22 18.56 66.37 18.56 66.37s-11.09-69.64-18.56-66.37ZM1197 884.61c-4.24 6.9 53.61 43.67 53.61 43.67s-49.38-50.57-53.61-43.67ZM1256.3 1101.51c8.06 1.13 19-66.22 19-66.22s-27.06 65.1-19 66.22ZM1348.05 978.27s70.65 6 69.29-2-69.29 2-69.29 2ZM1345.94 1088.89c6.82-4.41-29.45-62.35-29.45-62.35s22.63 66.77 29.45 62.35Z"/><path fill="#ffb93e" d="M1283.7 921.65c-5.33 1.91 9.93 46.93 9.93 46.93s-4.63-48.84-9.93-46.93ZM1307.49 1034c5.33-1.91-9.93-46.93-9.93-46.93s4.6 48.86 9.93 46.93ZM1307.79 894.37c-8.14 0-9.46 68.24-9.46 68.24s17.6-68.25 9.46-68.24ZM1285.14 1057.77c8.14 0 9.46-68.23 9.46-68.23s-17.6 68.24-9.46 68.23ZM1303.57 983s38 31.3 40.42 26.2-40.42-26.2-40.42-26.2ZM1247.2 946.46c-2.42 5.1 40.42 26.21 40.42 26.21s-38.01-31.3-40.42-26.21ZM1264 1025.93c5.13 2.39 26.37-40.17 26.37-40.17s-31.48 37.77-26.37 40.17ZM1327.17 929.75c-5.13-2.4-26.37 40.16-26.37 40.16s31.5-37.76 26.37-40.16Z"/><path fill="#fff" d="M1844.84 583.71c-7.86-1.62-9.13 16.24 22.73 114.41 17 52.33 42 130.29 83.52 234.06 0 0-47.43-132.54-78.29-234.44-18.72-61.83-26.29-113.69-27.96-114.03ZM1798.91 832.28c-4.09-1-2.08 7.18 28 53.56 16 24.72 39.78 61.54 75.44 110.82 0 0-42.79-62.76-72.94-110.82-18.27-29.16-29.63-53.35-30.5-53.56ZM1998.72 776c-3.61 29.31-9.1 72.86-13.49 133.65 0 0 7.59-75.74 15.4-132.06 4.74-34.18 11.59-60.09 11.07-60.81-2.48-3.35-6.21 4.27-12.98 59.22Z"/><path fill="#ffb93e" d="M1829.41 389.23c-8.51.49-6.31 72.09-6.31 72.09s14.82-72.57 6.31-72.09ZM1814.31 561.85c8.51-.48 6.3-72.08 6.3-72.08s-14.82 72.57-6.3 72.08ZM1836.13 476.71s72.73 14.37 72.3 5.89-72.3-5.89-72.3-5.89ZM1735.29 468.48c.44 8.48 72.3 5.9 72.3 5.9s-72.74-14.38-72.3-5.9Z"/><path fill="#fff" d="M1838.53 469.77s104.62-21.07 99.33-32-99.33 32-99.33 32ZM1700 514.46c5.29 11 99.33-32.05 99.33-32.05s-104.61 21.07-99.33 32.05ZM1876.05 360.09c-11.72-3.46-43.57 94.61-43.57 94.61s55.29-91.15 43.57-94.61ZM1771.72 586.64c11.72 3.46 43.57-94.61 43.57-94.61s-55.29 91.15-43.57 94.61ZM1835.78 484.7s85.29 63.3 90 52-90-52-90-52ZM1710.32 412.19c-4.67 11.3 90 52 90 52s-85.32-63.3-90-52Z"/><path fill="#f9572a" d="M1831.07 486.42s41 61.48 46.66 55.15-46.66-55.15-46.66-55.15ZM1766 409.52c-5.71 6.34 46.66 55.14 46.66 55.14s-40.96-61.48-46.66-55.14ZM1755.31 531.58c6.32 5.66 55.58-46.8 55.58-46.8s-61.89 41.15-55.58 46.8ZM1832.83 466.31s61.91-41.15 55.58-46.8-55.58 46.8-55.58 46.8Z"/><path fill="#ffb93e" d="M1727.32 678.56c-7.63.43-5.66 64.65-5.66 64.65s13.34-65.08 5.66-64.65ZM1713.77 833.37c7.63-.44 5.66-64.65 5.66-64.65s-13.29 65.08-5.66 64.65ZM1733.34 757s65.23 12.89 64.84 5.28-64.84-5.28-64.84-5.28ZM1642.91 749.63c.39 7.61 64.84 5.29 64.84 5.29s-65.23-12.92-64.84-5.29Z"/><path fill="#f9572a" d="M1735.5 750.78s93.82-18.89 89.08-28.74-89.08 28.74-89.08 28.74ZM1611.26 790.86c4.74 9.84 89.08-28.74 89.08-28.74s-93.82 18.88-89.08 28.74ZM1769.15 652.42c-10.51-3.1-39.08 84.85-39.08 84.85s49.59-81.74 39.08-84.85ZM1675.58 855.6c10.51 3.1 39.07-84.85 39.07-84.85s-49.58 81.74-39.07 84.85ZM1688 649.65c-9.92 4.75 28.11 88.69 28.11 88.69s-18.2-93.44-28.11-88.69ZM1755.33 862c9.91-4.75-28.12-88.69-28.12-88.69s18.2 93.48 28.12 88.69ZM1733 764.18s76.49 56.76 80.68 46.63-80.68-46.63-80.68-46.63ZM1620.51 699.15c-4.18 10.13 80.68 46.63 80.68 46.63s-76.49-56.78-80.68-46.63Z"/><path fill="#ffd9a1" d="M1550 767.22c1.75 10.79 93.46-2.57 93.46-2.57s-95.27-8.22-93.46 2.57ZM1828.28 624.43c-9.34-5.7-59.66 72-59.66 72s69-66.3 59.66-72ZM1714.93 582c-10.9 1.31-2.18 93.15-2.18 93.15s13.09-94.42 2.18-93.15ZM1630 597.34c-8.2 7.32 52 77.14 52 77.14s-43.82-84.48-52-77.14ZM1621.13 901.26c10 4.55 50.66-78.57 50.66-78.57s-60.62 74.02-50.66 78.57ZM1788.07 776.61s88.82 34.81 90.21 23.95-90.21-23.95-90.21-23.95ZM1741.79 919.22c10.55-3.11-13.45-92.12-13.45-92.12s2.91 95.23 13.45 92.12Z"/><path fill="#ffb93e" d="M1728.8 765.72s36.73 55.13 41.85 49.45-41.85-49.45-41.85-49.45ZM1670.44 696.75c-5.12 5.69 41.85 49.45 41.85 49.45s-36.73-55.13-41.85-49.45ZM1660.86 806.22c5.67 5.07 49.85-42 49.85-42s-55.52 36.93-49.85 42ZM1730.38 747.68s55.52-36.9 49.85-42-49.85 42-49.85 42ZM2037 573c-5.53.31-4.1 46.81-4.1 46.81s9.67-47.13 4.1-46.81ZM2027.23 685.09c5.53-.31 4.09-46.81 4.09-46.81s-9.62 47.12-4.09 46.81ZM2041.4 629.8s47.23 9.33 46.95 3.83-46.95-3.83-46.95-3.83ZM1975.92 624.46c.28 5.5 46.95 3.82 46.95 3.82s-47.24-9.28-46.95-3.82Z"/><path fill="#f9572a" d="M2043 625.29s67.94-13.68 64.51-20.81-64.51 20.81-64.51 20.81ZM1953 654.31c3.43 7.13 64.5-20.81 64.5-20.81s-67.93 13.68-64.5 20.81ZM2067.33 554.06c-7.61-2.24-28.3 61.44-28.3 61.44s35.91-59.19 28.3-61.44ZM1999.57 701.19c7.61 2.24 28.3-61.44 28.3-61.44s-35.87 59.19-28.3 61.44ZM2008.56 552.05c-7.18 3.44 20.36 64.23 20.36 64.23s-13.18-67.67-20.36-64.23ZM2057.32 705.86c7.18-3.44-20.36-64.23-20.36-64.23s13.18 67.67 20.36 64.23ZM2041.17 635s55.39 41.11 58.43 33.77-58.43-33.77-58.43-33.77ZM1959.7 587.9c-3 7.34 58.42 33.76 58.42 33.76s-55.39-41.1-58.42-33.76Z"/><path fill="#ffd9a1" d="M1908.6 637.19c1.27 7.82 67.68-1.86 67.68-1.86s-68.95-5.95-67.68 1.86ZM2110.15 533.79c-6.76-4.13-43.21 52.17-43.21 52.17s49.97-48.04 43.21-52.17ZM2028.07 503.1c-7.9.95-1.58 67.45-1.58 67.45s9.51-68.41 1.58-67.45ZM1966.56 514.17c-5.94 5.31 37.65 55.87 37.65 55.87s-31.72-61.17-37.65-55.87ZM1960.15 734.26c7.21 3.29 36.68-56.9 36.68-56.9s-43.9 53.64-36.68 56.9ZM2081 644s64.31 25.21 65.32 17.35S2081 644 2081 644ZM2047.52 747.26c7.63-2.25-9.75-66.7-9.75-66.7s2.12 68.95 9.75 66.7Z"/><path fill="#ffb93e" d="M2038.11 636.11s26.6 39.92 30.31 35.81-30.31-35.81-30.31-35.81ZM1995.85 586.16c-3.71 4.12 30.3 35.81 30.3 35.81s-26.59-39.92-30.3-35.81ZM1988.91 665.43C1993 669.11 2025 635 2025 635s-40.2 26.76-36.09 30.43ZM2039.26 623s40.2-26.72 36.09-30.39-36.09 30.39-36.09 30.39ZM3877.57 910.64s48.35-4.5 46.46-9.71-46.46 9.71-46.46 9.71ZM3812.77 924.18c1.89 5.21 46.46-9.71 46.46-9.71s-48.35 4.53-46.46 9.71Z"/><path fill="#f9572a" d="M3877.76 905.86s61.59-32.53 56.18-38.4-56.18 38.4-56.18 38.4ZM3799.4 959.41c5.4 5.88 56.18-38.4 56.18-38.4s-61.58 32.53-56.18 38.4ZM3823.06 845.28c-5.92 5.35 38.5 55.93 38.5 55.93s-32.56-61.29-38.5-55.93ZM3915.25 979.21c5.92-5.36-38.5-55.93-38.5-55.93s32.58 61.28 38.5 55.93ZM3878.88 915.69s65.54 23.72 66.31 15.8-66.31-15.8-66.31-15.8ZM3786.39 893.67c-.78 7.92 66.31 15.79 66.31 15.79s-65.54-23.71-66.31-15.79Z"/><path fill="#ffd9a1" d="M3706.3 914.79c.72 7.92 68.12 3.3 68.12 3.3s-68.83-11.23-68.12-3.3ZM3719.53 1013.09c5.18 6.07 57.61-36.26 57.61-36.26s-62.79 30.17-57.61 36.26ZM3765.06 1054.87c7.22 3.44 37.69-56.47 37.69-56.47s-44.91 53.03-37.69 56.47ZM3844.7 1076c8 .36 12.52-66.61 12.52-66.61s-20.52 66.26-12.52 66.61ZM3974.11 1053.78c5.73-5.57-40.52-54.5-40.52-54.5s34.8 60.06 40.52 54.5ZM3910 1075.93c7.58-2.6-13.11-66.5-13.11-66.5s5.51 69.09 13.11 66.5ZM3719.25 844.23c-1.61 7.8 64.26 22.69 64.26 22.69s-62.64-30.48-64.26-22.69ZM3924.09 848.61s55.94-41.4 49.7-46.39-49.7 46.39-49.7 46.39ZM3945.42 965.43s54.26 43.54 57.58 36.3-57.58-36.3-57.58-36.3ZM3960.29 942.77s65.59 23.58 66.35 15.66-66.35-15.66-66.35-15.66Z"/><path fill="#ffc76c" d="M3751.5 955.62c3.52 7.15 64.81-21.09 64.81-21.09s-68.31 13.94-64.81 21.09ZM3915.8 798.75c-7.74-2-26.42 62.47-26.42 62.47s34.16-60.43 26.42-62.47ZM3936.91 886.84s68.19-14.58 64.6-21.7-64.6 21.7-64.6 21.7ZM3827.54 792.65c-7.34 3.17 18.26 65.29 18.26 65.29s-10.91-68.45-18.26-65.29ZM3771.39 820.85c-4.17 6.79 52.74 42.95 52.74 42.95s-48.56-49.74-52.74-42.95ZM3829.74 1034.22c7.93 1.11 18.74-65.15 18.74-65.15s-26.67 64.04-18.74 65.15ZM3920 913s69.5 5.89 68.17-2-68.17 2-68.17 2ZM3917.93 1021.8c6.71-4.34-29-61.34-29-61.34s22.29 65.68 29 61.34Z"/><path fill="#ffb93e" d="M3856.7 857.28c-5.25 1.88 9.77 46.17 9.77 46.17s-4.47-48.05-9.77-46.17ZM3880.1 967.83c5.25-1.88-9.77-46.17-9.77-46.17s4.53 48.05 9.77 46.17ZM3880.4 830.45c-8 0-9.31 67.12-9.31 67.12s17.32-67.13 9.31-67.12ZM3858.12 991.19c8 0 9.3-67.13 9.3-67.13s-17.31 67.14-9.3 67.13ZM3876.25 917.64s37.39 30.79 39.76 25.78-39.76-25.78-39.76-25.78ZM3820.79 881.69c-2.37 5 39.76 25.78 39.76 25.78s-37.39-30.79-39.76-25.78ZM3837.34 959.86c5 2.36 25.94-39.51 25.94-39.51s-30.99 37.15-25.94 39.51ZM3899.46 865.25c-5-2.36-25.94 39.51-25.94 39.51s30.99-37.15 25.94-39.51Z"/><path fill="#d18164" d="M2013.69 917.77h673.64v1071.2h-673.64z"/><path fill="#7e240d" d="M2009.25 1065.02h679.3v54.04h-679.3z"/><path fill="#e7a585" d="M1974.04 1084.91h752.92v681.39h-752.92z"/><path fill="#d18164" d="M2255.78 1556.57c-85.68 70.22-177.89 118-277.07 164.93-1.62.77-3.15 1.53-4.67 2.3v42.49H2727v-681.38h-132.76c-67.93 183.87-187.24 347.86-338.46 471.66Z"/><path fill="#806444" d="M2069.68 1133.28h557.94v563.87h-557.94z"/><path fill="#7e240d" d="M2069.68 1133.28h557.94v563.87h-557.94z"/><path fill="#ad3f26" d="M2262.71 576.35 2106.69 794l-91 122.7-1.7 5.36h427.62q79-.64 157.86-1.36c27.93-.26 57.82-1.28 84-9.81l-251.14-334.54Z"/><path fill="#7e240d" d="M2432.33 576.35h-64.23c2 50.5-6.7 128.34-46.18 149-72 37.5-137.46 65.35-215.23 68.68l-39 52.67-51.92 70a90.5 90.5 0 0 0 12.39 3.92h578c26-.38 53.29-1.87 77.39-9.73l-48.22-64.22ZM2043.16 1983.7h614.76v671.74h-614.76z"/><path fill="#59240d" d="M2043.15 1983.69h614.77v41.21h-614.77z"/><path fill="#bc432d" d="m2144.31 1849.83-22-49.34c-5.82-13-30.64-13-36.4 0l-21.82 49.34a10.84 10.84 0 0 0-.85 3.08h-.24v95.17h82.55V1853h-.35a11.53 11.53 0 0 0-.89-3.17ZM2267.43 1849.83l-22-49.34c-5.81-13-30.64-13-36.4 0l-21.81 49.34a11.21 11.21 0 0 0-.86 3.08h-.24v95.17h82.55V1853h-.35a11.18 11.18 0 0 0-.89-3.17ZM2390.56 1849.83l-22-49.34c-5.81-13-30.63-13-36.4 0l-21.81 49.34a11.21 11.21 0 0 0-.86 3.08h-.23v95.17h82.55V1853h-.36a11.5 11.5 0 0 0-.89-3.17ZM2513.68 1849.83l-22-49.34c-5.82-13-30.64-13-36.4 0l-21.82 49.34a10.84 10.84 0 0 0-.85 3.08h-.24v95.17h82.55V1853h-.35a11.18 11.18 0 0 0-.89-3.17ZM2636.81 1849.83l-22-49.34c-5.81-13-30.64-13-36.4 0l-21.81 49.34a11.21 11.21 0 0 0-.86 3.08h-.23v95.17H2638V1853h-.36a11.5 11.5 0 0 0-.83-3.17ZM2144.31 993.68l-22-36.25c-5.82-9.56-30.64-9.54-36.4 0l-21.82 36.24a6.46 6.46 0 0 0-.85 2.27h-.24v69.9h82.55V996h-.35a6.76 6.76 0 0 0-.89-2.32ZM2267.43 993.68l-22-36.25c-5.81-9.56-30.64-9.54-36.4 0l-21.81 36.24a6.69 6.69 0 0 0-.86 2.27h-.24v69.9h82.55V996h-.35a6.56 6.56 0 0 0-.89-2.32ZM2390.56 993.68l-22-36.25c-5.81-9.56-30.63-9.54-36.4 0l-21.81 36.24a6.69 6.69 0 0 0-.86 2.27h-.23v69.9h82.55V996h-.36a6.74 6.74 0 0 0-.89-2.32ZM2513.68 993.68l-22-36.25c-5.82-9.56-30.64-9.54-36.4 0l-21.82 36.24a6.46 6.46 0 0 0-.85 2.27h-.24v69.9h82.55V996h-.35a6.56 6.56 0 0 0-.89-2.32ZM2636.81 993.68l-22-36.25c-5.81-9.56-30.64-9.54-36.4 0l-21.81 36.24a6.69 6.69 0 0 0-.86 2.27h-.23v69.9H2638V996h-.36a6.74 6.74 0 0 0-.83-2.32Z"/><path fill="#58240d" d="M2013.35 846.66h674.33v73.95h-674.33z"/><path fill="#bc432d" d="M2088.89 1149.4h520.31v528.72h-520.31z"/><ellipse cx="2349.05" cy="1408.21" fill="#7e240d" rx="220.64" ry="221.71"/><ellipse cx="2349.05" cy="1408.21" fill="#fff" rx="183.41" ry="184.29"/><circle cx="2348.4" cy="1406.73" r="184.29" fill="#efddc7"/><path fill="#d8c8b6" d="M2440.15 1246.21a184 184 0 0 1 73.48 147.26c0 101.78-82.5 184.29-184.28 184.29a183.55 183.55 0 0 1-88.47-22.58 183.5 183.5 0 0 0 110.81 37c101.78 0 184.29-82.51 184.29-184.29a184.24 184.24 0 0 0-95.83-161.68Z"/><path fill="#ad3f26" d="M2267.76 1263.77a7.55 7.55 0 1 0 7.55 7.55 7.54 7.54 0 0 0-7.55-7.55ZM2211.91 1328.17a7.55 7.55 0 1 0 7.54 7.54 7.55 7.55 0 0 0-7.54-7.54ZM2432.78 1261.62a7.55 7.55 0 1 0 7.54 7.54 7.54 7.54 0 0 0-7.54-7.54ZM2487.57 1347.73a7.55 7.55 0 1 0 7.54 7.55 7.55 7.55 0 0 0-7.54-7.55ZM2490.31 1474.12a7.55 7.55 0 1 0 7.55 7.54 7.54 7.54 0 0 0-7.55-7.54ZM2426.82 1541.22a7.55 7.55 0 1 0 7.55 7.55 7.55 7.55 0 0 0-7.55-7.55ZM2274.07 1541.22a7.55 7.55 0 1 0 7.55 7.55 7.55 7.55 0 0 0-7.55-7.55ZM2208.17 1474.12a7.55 7.55 0 1 0 7.55 7.54 7.54 7.54 0 0 0-7.55-7.54ZM2478.35 1388.93h11.96v45.99h-11.96zM2495.11 1388.93h11.96v45.99h-11.96zM2511.87 1388.93h11.96v45.99h-11.96zM2344.26 1546.84q-1 10.31-2 23.6-.93-13.15-3.13-32.15h-12.62l6.91 46h18.17l6.09-46h-12.62ZM2359.72 1538.29h11.96v45.99h-11.96zM2183.15 1388.93h11.96v45.99h-11.96zM2224.15 1388.93h-10l-2.55 12.55c-.32-1.89-.73-4-1.23-6.22q-.93-4.44-1.24-6.33h-11.57l4.35 20.34-4.35 25.65h11.65l1.13-7.5c.53-3.26 1-6.34 1.26-9.26a152.61 152.61 0 0 0 3.63 16.76h11.08l-6.33-25.65ZM2346.15 1238.62h-10l-2.55 12.56c-.32-1.9-.73-4-1.23-6.23q-.93-4.42-1.24-6.33h-11.57l4.35 20.34-4.35 25.65h11.65l1.13-7.5q.81-4.87 1.26-9.26a152.09 152.09 0 0 0 3.63 16.76h11.08L2342 1259ZM2349.97 1238.62h11.96v45.99h-11.96zM2366.73 1238.62h11.96v45.99h-11.96zM2360.23 1312.08c-9.64-12.14-8.76-20.48-10.42-20.88-1.66.4-.79 8.74-10.42 20.88a65.12 65.12 0 0 0-6.63 9.17 15 15 0 0 0-1.63 10.84 10.42 10.42 0 0 0 7.51 7.58 18.88 18.88 0 0 0-5.57 6.63 44.1 44.1 0 0 1 5.63-2.26 1.67 1.67 0 0 1 1.2-.07 1.64 1.64 0 0 1 .73 1.06 30 30 0 0 1 1.06 7.44c1 19 1.15 38.08.32 57.11a7.25 7.25 0 0 0 .16 2.46 7.55 7.55 0 0 0 1 1.91l6.6 9.72 6.6-9.72a5.49 5.49 0 0 0 1.2-4.37c-.83-19-.73-38.1.32-57.11a30 30 0 0 1 1.11-7.47 1.59 1.59 0 0 1 .72-1.06 1.67 1.67 0 0 1 1.2.07 43.52 43.52 0 0 1 5.63 2.26 18.85 18.85 0 0 0-5.56-6.63 10.42 10.42 0 0 0 7.51-7.58 15 15 0 0 0-1.63-10.84 65.93 65.93 0 0 0-6.64-9.14Z"/><path fill="#563f26" d="M2352.32 1405.28a5.22 5.22 0 1 0 5.22 5.22 5.23 5.23 0 0 0-5.22-5.22Z"/><path fill="#fff" d="M2186.44 1408.59A164.9 164.9 0 0 0 2296 1563.93a164.88 164.88 0 0 1 147-292.36 164.86 164.86 0 0 0-256.51 137Z" opacity=".53"/><path fill="#ad3f26" d="m2334.97 1448.24 85.39-174.17-92.92 170.23 7.53 3.94z"/><path fill="#556263" d="M2349.05 1400.25a13.51 13.51 0 1 0 13.44 13.51 13.48 13.48 0 0 0-13.44-13.51Z"/><path fill="#59240d" d="M2157.61 2203c-3.2-195.43-16.84-195-20 .57l-5.34 420.27-.51 31.59h31.77l-.52-31.59ZM2294.39 2203c-3.2-195.43-16.84-195-20 .57l-5.39 420.29-.51 31.59h31.79l-.52-31.59ZM2431.16 2203c-3.19-195.43-16.84-195-20 .57l-5.34 420.27-.52 31.59h31.78l-.52-31.59ZM2567.94 2203c-3.19-195.43-16.84-195-20 .57l-5.34 420.27-.51 31.59h31.78l-.52-31.59Z"/><path fill="#59240d" d="M2034.72 2546.42h622.69v108.08h-622.69z"/><path fill="#faa028" d="M2387.19 521.66h.67v-26.53h-7.36a69 69 0 0 0-3.49-28.67c-5-14.34-14-25.5-23.74-34.25-3.41-3-7.16-6.21-8.68-11.36-5.46 10.19-13.65 17-19.84 26.44a73.49 73.49 0 0 0-10.37 26 49.69 49.69 0 0 0 .82 21.81h-7.35v26.53c-24.93 0-45.14 21.56-45.14 48.16v6.53h169.62v-6.53c0-26.57-20.21-48.13-45.14-48.13Z"/><path fill="#dd6614" d="M2387.19 521.66h.67v-26.53h-7.36a69 69 0 0 0-3.49-28.67c-5-14.34-14-25.5-23.74-34.25-3.41-3-7.16-6.21-8.68-11.36-3.81 7.11-9 12.6-13.81 18.46a78.47 78.47 0 0 1 16.55 27.15 69.14 69.14 0 0 1 3.5 28.67h7.35v26.53h-.66c24.93 0 45.14 21.56 45.14 48.16v6.53h29.67v-6.53c0-26.6-20.21-48.16-45.14-48.16Z"/><path fill="#fff" d="M2334.82 529.74a4.54 4.54 0 00-3-.56l-17.17.82c-14.21.69-28.38 1.79-36.79 19.66-1.48 3.13-2.61 7.31-1.12 10.44a5.6 5.6 0 005.1 3.17c5.05.11 9.49-4.45 13-9.4s6.64-10.64 11.06-14c8.29-6.19 18.63-2.47 27.89-5.06a2.85 2.85 0 002.14-1.65 3.25 3.25 0 00-1.11-3.42zM2337.46 441.85a52.81 52.81 0 00-11.4 20.08 27.16 27.16 0 00-1.43 11.29c.48 3.82 2.54 7.47 5.35 8.11 3.67.82 6.95-3.62 8.26-8.36s1.36-10 2.59-14.73a25.36 25.36 0 014.3-9.13c1.88-2.46 4.38-4.88 4.38-8.43.01-11.3-9.74-1.39-12.05 1.17z" opacity=".32"/><path fill="#4fb29f" d="M2055.39 2015.24c-83.32-36.6-163.8 23.63-157.77 72.37-8.68-54.63-77.5-80.51-127.17-58.08s-79.29 77.64-90.26 132.31c-16.28-47.74-33.26-96.73-65.62-134.42s-84.15-61.93-131.51-46.55c-79.84 25.94-96 136.7-82.08 221.13-37.81-51.85-118.56-54.9-171.43-17.21-65.25 46.52-141.44 245.21-52.91 296.77 37.27 21.7 121.39-14 159-22.12q103.61-22.33 207.24-44.6c71.07-15.3 422.88 210.11 438.43 209.14 257.53-16.1 300.82-509.16 74.08-608.74Z"/><path fill="#4fb29f" d="M3461.93 2304.5c-36.85 6.77-73.76 30.66-95.81 62 36.14-49.21 21.68-115.41-28.74-131.62s-124.49 21.54-147.26 75c13.73-54.8 45.86-108 64-162.6s19.22-116.7-21.87-146.38c-43.88-31.69-120.7-12.87-175.19 27.31s-91.9 96.64-127.51 151.19c32-71.31-8.66-147.25-81.54-157.73s-164 43.15-198.15 114c21.85-53.63 44-108.52 46.39-161.83s-18.8-105.63-67.56-124.54c-61.47-23.85-148.15 13-204.17 68.2s-88.46 124.51-119.29 191.54c6.26-47.21-57.25-68-106.3-44.41s-80.64 73.67-97.74 120.86c1.51-33.76-34.55-53.69-71.43-49.2-92.29 11.25-171.15 113.82-219.93 183-19.2 27.23-161.26 237.11-170.56 236.05 611 69.1 1227.48 133.87 1868 94 42.34-70.72 86-145.49 88.46-218.64s-53.39-140.97-133.8-126.2Z"/><path fill="#88c1ba" d="M2193.94 2207.44c-65.75-.45-128.86 38.22-180.14 84-37.56 33.54-73 75.21-79.71 123.86 5.71-55-54.46-94.94-108.53-83.87s-97.15 58.33-122 109.08c-3.45-49.9-7.26-101.16-28.95-144.77s-65.73-78.34-115.73-73.61c-84.29 8-128.63 112.11-137 197.14-23.31-58.53-101-78.92-162.11-53.72-75.45 31.12-200.94 207.74-128.27 276.95 30.59 29.12 121.58 12.57 160.2 12.81q106.46.66 212.92 1.39c73 .47 744.56 12.11 758.43 5.6 96.51-45.32 137.6-191.49 116.67-281.9s-92.21-172.33-185.78-172.96Z"/><path fill="#88c1ba" d="M3370.53 2367.51c-61.13-25.21-138.79-4.82-162.11 53.72-8.39-85-52.73-189.17-137-197.14-50-4.73-94.05 30-115.73 73.61s-25.49 94.87-29 144.76c-24.81-50.75-67.89-98-122-109.08s-114.24 28.93-108.53 83.88c-6.76-48.65-42.15-90.32-79.71-123.86-51.28-45.8-114.39-84.47-180.14-84-93.57.64-164.86 82.57-185.79 173s-2.7 187.82 15.55 281.91c2.71 14 786.53-5.13 859.55-5.61q106.45-.69 212.91-1.39c38.62-.24 146.92 16.32 177.51-12.81 72.74-69.26-70.04-245.87-145.51-276.99Z"/><path fill="#d6e1e8" d="m3799.44 1566.52-92-25.88s-14.82 52.66-14 101.52c.78 45.47 42.55 61.22 45.7 73.31 1.53 5.85-4.36 26.79-8.71 31-9 8.67-52.85.33-77.23 38.73-26.18 41.25-41 93.92-41 93.92l92 25.88 4.57 1.29 92 25.88s14.82-52.66 14-101.52c-.78-45.47-42.54-61.22-45.7-73.31-1.53-5.85 4.36-26.79 8.72-31 9-8.67 52.85-.34 77.22-38.73 26.19-41.25 41-93.92 41-93.92l-92-25.88Z"/><path fill="#e4eef4" d="m3800 1566.67-85.81-24.14s-13.86 49.28-10.84 98.34c2.76 44.63 42.7 60.23 44.48 71.94.86 5.67-5.25 34.41-8.95 38.8-7.62 9.06-54.55-1.08-76.08 38.11-23.12 42.12-38 92.93-38 92.93l79.94 22.49 3.54 1 83.38 22s10.92-52.42 13.14-100.42c2.07-44.67-42-58.14-43.74-69.85-.86-5.67 6.83-33 10.52-37.37 7.62-9.06 51.69.78 75.27-37.21 24.62-39.66 36.94-93 36.94-93l-80.29-22.59Z"/><path fill="#ffa719" d="M3789.29 1640.8c-11.8-3.29-23.62-6.58-35.66-8.81-7.79-1.44-15.66-2.44-23.38-4.25-9.16-2.14-17.93-6.88-26.84-10.12-.25 7.65-.2 15.51.28 23.35 2.75 44.63 42.69 60.24 44.48 72 .3 2-.26 6.78-1.26 12.38 3.35 3.07 5.74 6.79 4.9 11.07 5.78.85 10.75-3.67 15.68-6.8.16-.11.33-.2.49-.3 1.46-4.12 2.89-7.39 4-8.68 7.63-9.06 51.7.79 75.28-37.21a230 230 0 0 0 12.4-23l-.61-.18ZM3766.44 1838.22c-7.4-8.76-15.25-17.85-25.94-22a39.55 39.55 0 0 0-19.2-2.11c-7.4.94-14.45 3.66-21.41 6.36-21.4 8.29-42.9 16.65-63.21 27.28-7.58 20.17-11.88 34.9-11.88 34.9l79.94 22.49 3.54 1 83.38 22s4.51-21.67 8.33-49.9c-3-3.87-6.21-7.63-9.37-11.38Z"/><path fill="#ad3f26" d="m3677.33 1513.18 12.39 3.48-.14.53a23 23 0 0 0 15.92 28.39l189.34 53.26a23 23 0 0 0 28.39-15.92l.15-.52 12.39 3.48 7.64-27.16L3685 1486Z"/><path fill="#7e240d" d="m3882.11 1562.75-12.4-3.49-.14.52a23 23 0 0 1-28.39 15.93L3691 1533.47a23 23 0 0 0 14.47 12.11l189.34 53.26a23 23 0 0 0 28.39-15.92l.15-.52 12.39 3.48 7.64-27.16-55.73-15.72Z"/><path fill="#7e240d" d="m3689.06 1519.43 204.76 57.6 7.8-8.22-211.9-52.15-.66 2.77z"/><path fill="#56382e" d="m3590.84 1883.14-.88 2.71 208 65.98-2.36-11.09-204.76-57.6z"/><path fill="#ffcb4a" d="M3721.44 1813.63c-7.41.94-14.45 3.66-21.41 6.36-21.41 8.3-42.91 16.66-63.22 27.28-7.58 20.17-11.88 34.9-11.88 34.9l42.61 12c1.13-.74 2.23-1.53 3.33-2.32l16.11-11.57c5.62-4 11.3-8.12 17.66-10.86 5.08-2.19 11.1-4 13.42-9 1.92-4.14.55-9-.45-13.4s-1.39-9.73 1.84-13c4.81-4.81 6.8-3.75 7.35-10.85.21-2.67 2-6.56 2.19-9.84a42.33 42.33 0 0 0-7.55.3Z"/><path fill="#ad3f26" d="M3823.76 1951.05a23 23 0 0 0-15.92-28.38l-189.35-53.27a23 23 0 0 0-28.38 15.92l-.15.53-12.39-3.49-7.65 27.17 258.44 72.7 7.65-27.17-12.4-3.48Z"/><path fill="#7e240d" d="M3823.76 1951.05a23 23 0 0 0-15.92-28.38l-189.35-53.27a22.93 22.93 0 0 0-18.65 2.79l150.16 42.24a23 23 0 0 1 15.93 28.39l-.15.52 12.39 3.49-5.55 19.71 55.76 15.69 7.65-27.17-12.4-3.48Z"/><path fill="#ffcb4a" d="M3736.48 1621.87c-5.48-1.75-10.94-3.62-16.54-5-2.64-.65-14.23-4.21-16.34-1.76-4.18 4.85 19.49 14 21.87 15.69 4.42 3.15 8.39 7 13.14 9.59 5.47 3 11.7 4.3 17.87 5.25 21.71 3.33 44 3 65.43 7.66 11.29 2.44 22.3 6.24 33.74 7.89 2.18.31 5.43-.63 4.79-2.76-39.55-17.2-82.86-23.5-123.96-36.56Z"/><path fill="#fff" d="M3715.81 1769a35.24 35.24 0 0 0-10.23 1.07 32.64 32.64 0 0 0-18.17 12c-3.07 4.15-5.09 9-7.06 13.76q-4.23 10.32-8.3 20.71c-2.61 6.66-5.19 13.49-5.5 20.64-.09 2.14.07 4.45 1.38 6.15 2.16 2.83 6.74 2.75 9.65.69s4.49-5.5 5.68-8.86c3.18-9 4.46-18.47 7.11-27.61s7-18.24 14.64-23.87c6-4.37 13.55-6.36 18.94-11.42 1.63-1.51-7.64-3.26-8.14-3.26Z"/><path fill="#fff" d="M3723.37 1571.22c-1.8 2.77-2.23 6.19-2.62 9.47l-6.27 52.84c-.72 6-1.43 12.23-.07 18.16s5.19 11.66 11 13.58c1.13.37 2.52.54 3.39-.27a3.52 3.52 0 0 0 .86-2.4c.33-5.14-1.58-10.11-2.73-15.12-4.51-19.63 2.59-40 10.85-58.34 2-4.44 4.12-9.2 3.3-14-1.41-8.14-13.08-11.03-17.71-3.92Z" opacity=".73"/><path fill="#8f9599" d="M3856.16 1613.1a114.91 114.91 0 0 1-53.44 76c-9.94 5.9-23.07 8.83-34.5 7.27 20.2 2.76 42.75 2.07 58.25-11.18 5.56-4.75 9.82-10.84 13.64-17.08a183.55 183.55 0 0 0 20.4-47c.53-1.91 1-4 .35-5.83s-3.03-3.28-4.7-2.18Z" opacity=".48"/><path fill="#8f9599" d="M3750.57 1777.12c10.24 5.32 19.26 15.3 24 25.86a114.91 114.91 0 0 1-.26 92.88c.75 1.83 3.46 2.07 5.09.94s2.41-3.09 3.08-5a183.53 183.53 0 0 0 10.49-50.14c.48-7.31.52-14.73-1.28-21.83-5.02-19.71-23.03-33.3-41.12-42.71Z" opacity=".29"/><path fill="#d1a454" d="M3749.55 1743.26a1.52 1.52 0 0 0-1.18.14 1.58 1.58 0 0 0-.74.94c-.21.75-.42 1.5-.64 2.25a1.58 1.58 0 0 0 1.09 1.93 1.57 1.57 0 0 0 1.18-.15 1.55 1.55 0 0 0 .74-.94c.21-.75.42-1.5.64-2.25a1.67 1.67 0 0 0-.14-1.18 1.56 1.56 0 0 0-.95-.74ZM3751.32 1758.32a1.2 1.2 0 0 0-.39-.45 1.27 1.27 0 0 0-.55-.29l-.41-.06a1.58 1.58 0 0 0-.77.2l-.32.24a1.45 1.45 0 0 0-.42.7c-.09.3-.17.6-.26.9a1.81 1.81 0 0 0 .14 1.19 1.17 1.17 0 0 0 .4.45 1.22 1.22 0 0 0 .55.29l.41.06a1.61 1.61 0 0 0 .77-.2l.32-.24a1.48 1.48 0 0 0 .42-.7c.09-.3.17-.6.26-.9a1.3 1.3 0 0 0 0-.62 1.19 1.19 0 0 0-.15-.57ZM3740.8 1776.74a1.21 1.21 0 0 0-.4-.44 1.11 1.11 0 0 0-.54-.3l-.42-.06a1.61 1.61 0 0 0-.77.2l-.32.24a1.63 1.63 0 0 0-.42.7c-.09.3-.17.6-.25.91a1.64 1.64 0 0 0 .14 1.18 1.07 1.07 0 0 0 .39.45 1.27 1.27 0 0 0 .55.29l.41.06a1.58 1.58 0 0 0 .77-.2l.33-.24a1.47 1.47 0 0 0 .41-.7c.09-.3.17-.6.26-.9a1.3 1.3 0 0 0 0-.62 1.18 1.18 0 0 0-.14-.57ZM3744.1 1784a1.2 1.2 0 0 0-.39-.45 1.27 1.27 0 0 0-.55-.29l-.41-.06a1.58 1.58 0 0 0-.77.2l-.33.24a1.51 1.51 0 0 0-.41.7c-.09.3-.17.6-.26.9a1.81 1.81 0 0 0 .14 1.19 1.24 1.24 0 0 0 .4.45 1.18 1.18 0 0 0 .54.29l.42.06a1.61 1.61 0 0 0 .77-.2l.32-.24a1.63 1.63 0 0 0 .42-.7c.09-.3.17-.6.25-.9a1.66 1.66 0 0 0-.14-1.19ZM3736.59 1794.52a1.56 1.56 0 0 0-.85 3 1.56 1.56 0 0 0 .85-3ZM3737.7 1805a1.17 1.17 0 0 0-.4-.45 1.18 1.18 0 0 0-.54-.29 1.09 1.09 0 0 0-.62 0 1.08 1.08 0 0 0-.57.17l-.32.24a1.63 1.63 0 0 0-.42.7l-.06.42a1.61 1.61 0 0 0 .2.77l.33.58a1.1 1.1 0 0 0 .39.44 1.29 1.29 0 0 0 .55.3 1.26 1.26 0 0 0 .61 0 1.13 1.13 0 0 0 .57-.18l.33-.23a1.5 1.5 0 0 0 .41-.71l.06-.41a1.48 1.48 0 0 0-.2-.77c-.1-.17-.21-.36-.32-.58ZM3731.51 1809.13a1.56 1.56 0 0 0-.85 3 1.56 1.56 0 0 0 .85-3ZM3734.73 1812.63a2.29 2.29 0 0 1-.08.28 1.56 1.56 0 0 0 3 .85c0-.1.05-.19.08-.28a1.56 1.56 0 0 0-3-.85Z"/><path fill="#f9ec70" d="M3442 1930.3c-3.27 20.64-7.36 41-16.43 59.94-8.43 17.63-18 34.68-26.58 52.22-16.32 33.28-28 67.71-24.62 105.27 1.6 17.58 5.08 35 6.08 52.63a169.46 169.46 0 0 1-6 54.45c-9.14 33.69-24.14 65.74-45.25 93.61-3.06 4 3.74 8 6.76 4a271.66 271.66 0 0 0 46.07-95.55c4.15-16.16 7.27-32.71 6.64-49.47-.66-17.7-3.89-35.06-5.72-52.65-2.06-19.8-1.86-39.46 3.38-58.82 5.35-19.73 13.67-38.3 23-56.46 8.92-17.41 18.43-34.56 26.35-52.46 7.65-17.3 11-36.09 14-54.66.73-4.93-6.84-7.05-7.68-2.05Z"/><path fill="#f7d832" d="m3450.39 1912.65-9-4.3c-1.23 4.16-3.63 6.56-6.26 10-1.51 2-5.47 4.14-5.28 7.08.11 1.81 1.43 2 2.76 2.74 1.88 1.07 2.44 2.72 4.16 3.86 3.44 2.3 6.39.87 9.81.56 3-.27 7.72 4.35 10.13 1.12 1.12-1.5.38-3.54-.16-5-2-5.33-4.18-10.65-6.16-16.06Z"/><path fill="#f7d832" d="M3509.87 1688.38c-46.11-12.54-93.84 14.61-106.2 60.77-18.25 68.18 16.47 162.57 43.44 169.9 29.1 7.92 110.68-65.8 123.53-124.48 10.21-46.67-14.64-93.64-60.77-106.19Z"/><path fill="#f6ce33" d="M3546.33 1825.36c-9.63 14.06-22.11 26.35-35.18 37.2-13.69 11.35-28.81 21.17-45.19 28.14-12.49 5.32-25.91 8.72-39.26 8.81 6.67 10.66 13.77 17.74 20.41 19.54 29.1 7.92 110.68-65.8 123.53-124.48a96.48 96.48 0 0 0 .89-37c-3.28 24.11-11.3 47.49-25.2 67.79Z"/><path fill="#f9ec70" d="M3429.37 1719.28c-24.65 25.16-31.59 58.32-15.52 74.07s49.1 8.13 73.75-17 31.59-58.32 15.51-74.08-49.11-8.15-73.74 17.01Z"/><path fill="#fff" d="M3475 1694.09c-14.82 1.44-32 11.26-42.56 21.83-14.75 14.81-26.48 36-25.6 57.69.07 2 2.37-1.44 2.49-1.58 2.47-2.69 4.09-7 5.92-10.12 14.92-25.57 34.05-44.33 61.26-56.22 3.61-1.58 22-5.8 19-9-4.06-4.23-15.59-3.07-20.51-2.6Z"/><path fill="#eb70a5" d="M3547 2312.71c-.21 14.14-.79 28.18-3.1 42a147.46 147.46 0 0 1-4.62 19.66c-5.83 18.64-12.85 36.89-18.85 55.49-.47 1.44-.93 2.89-1.39 4.33-10.54 33.86-16.35 68.18-8 103.37 3.32 13.94 7.86 27.61 11.33 41.52.79 3.21 1.54 6.44 2.2 9.68a169.8 169.8 0 0 1 1.8 54.77c-.5 4-1.07 8.07-1.73 12.08 2.72-.18 5.44-.36 8.15-.51q.81-5.31 1.38-10.62c1.79-16.58 2.52-33.41-.49-49.9-.54-2.94-1.15-5.87-1.81-8.78-3.26-14.31-7.78-28.27-11.37-42.51-4.86-19.31-7.47-38.81-5-58.71 2.47-20.29 8-39.86 14.65-59.16.58-1.66 1.15-3.33 1.74-5 5.86-16.81 12-33.53 16.86-50.68a133.28 133.28 0 0 0 3.1-14c2.32-13.86 2.74-28 2.93-42 .08-5.08-7.72-6.09-7.78-1.03Z"/><path fill="#c51637" d="m3552.74 2294-9.58-3c-.62 4.3-2.65 7-4.76 10.83-1.21 2.19-4.82 4.89-4.22 7.77.37 1.77 1.71 1.76 3.13 2.31 2 .79 2.81 2.34 4.66 3.23 3.74 1.78 6.46 0 9.79-.84 3-.71 8.27 3.19 10.19-.34.9-1.65-.12-3.56-.87-4.95-2.69-4.94-5.61-9.89-8.34-15.01Z"/><path fill="#f63d4f" d="M3579.6 2063.59c-47.42-5.84-90.79 27.85-96.43 75.3-8.34 70.08 39.49 158.55 67.23 162 29.94 3.68 100.16-80.93 104.5-140.84 3.45-47.68-27.9-90.63-75.3-96.46Z"/><path fill="#c51637" d="M3635.24 2194c-7.53 15.29-18.12 29.24-29.52 41.84-11.92 13.18-25.49 25.06-40.71 34.31-11.6 7-24.39 12.32-37.59 14.31 8.12 9.6 16.16 15.6 23 16.44 29.94 3.68 100.16-80.93 104.5-140.84a96.31 96.31 0 0 0-4.4-36.78c.18 24.33-4.42 48.6-15.28 70.72Z"/><path fill="#f67c7b" d="M3574.89 2078.27c-18.16-13.29-49.75-1-70.55 27.38s-23 62.24-4.79 75.53 49.75 1 70.56-27.38 22.94-62.23 4.78-75.53Z"/><path fill="#fff" d="M3546 2074.21c-14.46 3.54-30.1 15.71-39 27.67-12.49 16.77-21.08 39.39-17.11 60.76.36 1.93 2.14-1.77 2.24-1.92 2.06-3 3-7.49 4.42-10.86 11.12-27.44 27.37-48.74 52.61-64.38 3.35-2.08 21-8.89 17.49-11.62-4.65-3.61-15.94-.86-20.65.35Z"/><path fill="#846caf" d="M3855.47 2194.76c-8.62 19-17.95 37.55-31.72 53.45-12.79 14.77-26.52 28.69-39.45 43.33-24.55 27.77-45 57.86-51.61 95-3.11 17.38-4.37 35.09-8.07 52.36a169.41 169.41 0 0 1-20.23 50.92c-17.73 30.07-40.68 57-68.42 78.29-4 3.09 1.5 8.7 5.46 5.65a271.43 271.43 0 0 0 69.72-79.95c8.28-14.48 15.67-29.61 19.5-45.93 4-17.26 5.53-34.85 8.42-52.3 3.26-19.64 8.65-38.54 18.84-55.82 10.38-17.61 23.31-33.32 37.08-48.37 13.21-14.43 26.92-28.45 39.3-43.62 12-14.65 20.19-31.88 27.94-49 2.07-4.57-4.67-8.62-6.76-4.01Z"/><path fill="#4c60aa" d="m3868.19 2180-7.59-6.54c-2.29 3.69-5.24 5.37-8.7 8-2 1.52-6.36 2.56-7 5.44-.37 1.77.86 2.29 1.94 3.37 1.53 1.53 1.63 3.26 3 4.82 2.72 3.13 5.94 2.54 9.31 3.14 3 .54 6.31 6.23 9.48 3.76 1.48-1.15 1.31-3.31 1.18-4.88-.45-5.71-1.14-11.42-1.62-17.11Z"/><path fill="#7791d5" d="M3984.92 1979.43c-41.15-24.3-94.37-10.75-118.5 30.49-35.65 60.91-27.15 161.13-3.09 175.34 26 15.34 124.16-34.16 152.07-87.34 22.21-42.3 10.65-94.19-30.48-118.49Z"/><path fill="#4c60aa" d="M3983.81 2121.17c-13 11-28.29 19.56-43.77 26.56-16.2 7.32-33.38 12.79-51 15.18-13.45 1.82-27.28 1.55-40.18-1.9 3.61 12 8.58 20.75 14.5 24.25 26 15.34 124.16-34.16 152.07-87.34a96.41 96.41 0 0 0 10.67-35.48c-9.58 22.42-23.5 42.84-42.29 58.73Z"/><path fill="#8ba5f3" d="M3899.11 1987.91c-30.43 17.74-45.91 47.88-34.57 67.33s45.19 20.83 75.62 3.1 45.9-47.88 34.57-67.33-45.19-20.83-75.62-3.1Z"/><path fill="#fff" d="M3949.82 1975.72c-14.67-2.54-33.87 2.37-46.82 9.78-18.14 10.37-35.06 27.67-40 48.85-.45 1.92 2.66-.76 2.82-.86 3.1-1.94 5.79-5.65 8.39-8.19 21.16-20.71 44.57-33.74 74-38 3.9-.56 22.77.24 20.66-3.65-2.79-5.16-14.22-7.1-19.05-7.93Z"/><path fill="#934930" d="M1087.31 2213a169.18 169.18 0 0 1-6-54.45c1-17.64 4.48-35.05 6.08-52.63 3.42-37.56-8.3-72-24.62-105.27-8.6-17.54-18.15-34.59-26.58-52.22-9.07-19-13.16-39.3-16.43-59.94-.8-5-8.37-2.89-7.59 2.06 3 18.57 6.33 37.36 14 54.66 7.92 17.9 17.43 35 26.35 52.46 9.29 18.16 17.6 36.73 23 56.46 5.25 19.36 5.45 39 3.39 58.82-1.83 17.59-5.06 34.95-5.72 52.65-.63 16.76 2.49 33.31 6.64 49.47a271.66 271.66 0 0 0 46.07 95.55c3 4 9.82 0 6.76-4-21.21-27.91-36.21-59.96-45.35-93.62Z"/><path fill="#fa7330" d="M1026.69 1876.55c-2.63-3.48-5-5.88-6.26-10l-9 4.3c-2 5.41-4.16 10.73-6.12 16.08-.54 1.48-1.27 3.52-.15 5 2.4 3.23 7.09-1.39 10.13-1.12 3.42.31 6.37 1.74 9.81-.56 1.72-1.14 2.27-2.79 4.16-3.86 1.33-.75 2.65-.93 2.76-2.74.13-2.96-3.82-5.11-5.33-7.1Z"/><path fill="#fa9841" d="M951.9 1646.54c-46.1 12.55-71 59.52-60.77 106.19 12.85 58.68 94.43 132.4 123.53 124.48 27-7.33 61.69-101.72 43.44-169.9-12.36-46.16-60.1-73.31-106.2-60.77Z"/><path fill="#fa7330" d="M950.62 1820.72c-13.07-10.85-25.55-23.14-35.18-37.2-13.91-20.3-21.92-43.68-25.2-67.82a96.48 96.48 0 0 0 .89 37c12.85 58.68 94.43 132.4 123.53 124.48 6.64-1.8 13.74-8.88 20.41-19.54-13.36-.09-26.78-3.49-39.26-8.81-16.38-6.94-31.5-16.76-45.19-28.11Z"/><path fill="#ffbf85" d="M958.66 1660.4c-16.08 15.76-9.13 48.92 15.51 74.08s57.67 32.78 73.74 17 9.14-48.91-15.51-74.07-57.66-32.76-73.74-17.01Z"/><path fill="#fff" d="M986.73 1652.25c-4.88-.47-16.41-1.63-20.48 2.6-3.06 3.2 15.35 7.42 19 9 27.21 11.89 46.33 30.65 61.25 56.22 1.84 3.14 3.45 7.43 5.93 10.12.12.14 2.41 3.54 2.49 1.58.88-21.72-10.85-42.88-25.6-57.69-10.56-10.57-27.78-20.39-42.59-21.83Z"/><path fill="#eb70a5" d="M1276.55 2469.17a169.17 169.17 0 0 1 1.8-54.76c3.51-17.31 9.43-34 13.52-51.23 8.75-36.68 2.06-72.43-9.34-107.7-6-18.58-13-36.83-18.86-55.48-6.27-20.08-7.41-40.78-7.71-61.67-.07-5.06-7.87-4-7.8 1 .27 18.79.93 37.87 6 56.09 5.28 18.85 12.25 37.18 18.59 55.69 6.61 19.29 12.18 38.86 14.66 59.15 2.43 19.91-.18 39.4-5 58.7-4.32 17.15-10 33.87-13.18 51.3-3 16.5-2.28 33.32-.48 49.91a271.57 271.57 0 0 0 32 101.14c2.42 4.38 9.72 1.44 7.26-3-16.95-30.63-27.22-64.5-31.46-99.14Z"/><path fill="#820058" d="m1259.79 2116.7-9.57 3c-2.74 5.07-5.65 10-8.35 15-.74 1.4-1.76 3.3-.87 4.95 1.92 3.53 7.22-.37 10.19.34 3.33.79 6 2.62 9.79.84 1.86-.89 2.65-2.44 4.67-3.22 1.42-.56 2.75-.55 3.12-2.32.6-2.88-3-5.58-4.22-7.76-2.1-3.81-4.14-6.53-4.76-10.83Z"/><path fill="#b90058" d="M1223.35 1889.21c-47.42 5.84-78.75 48.78-75.3 96.43 4.34 59.91 74.57 144.52 104.5 140.84 27.74-3.42 75.57-91.89 67.24-162-5.65-47.42-49.01-81.11-96.44-75.27Z"/><path fill="#820058" d="M1197.23 2061.42c-11.39-12.6-22-26.55-29.51-41.84-10.87-22.08-15.47-46.35-15.27-70.72a96.31 96.31 0 0 0-4.4 36.78c4.34 59.91 74.57 144.52 104.5 140.84 6.83-.84 14.87-6.84 23-16.43-13.2-2-26-7.28-37.6-14.32a184.8 184.8 0 0 1-40.72-34.31Z"/><path fill="#eb589e" d="M1228.06 1903.89c-18.16 13.3-16 47.12 4.79 75.54s52.39 40.67 70.55 27.38 16-47.12-4.78-75.54-52.4-40.67-70.56-27.38Z"/><path fill="#fff" d="M1257 1899.83c-4.76-1.16-16-4-20.64-.35-3.49 2.73 14.14 9.54 17.49 11.62 25.23 15.64 41.48 37 52.6 64.38 1.37 3.37 2.36 7.85 4.42 10.87.11.15 1.89 3.84 2.25 1.91 4-21.37-4.63-44-17.12-60.76-8.9-11.96-24.53-24.13-39-27.67Z"/><path fill="#846caf" d="M1125.82 2529.85c-27.73-21.28-50.68-48.22-68.41-78.29a169.31 169.31 0 0 1-20.23-50.92c-3.71-17.27-5-35-8.07-52.35-6.65-37.13-27.07-67.22-51.61-95-12.94-14.63-26.66-28.55-39.46-43.32-13.77-15.9-23.09-34.42-31.71-53.45-2.09-4.61-8.83-.57-6.76 4 7.75 17.13 16 34.35 27.94 49 12.37 15.17 26.09 29.19 39.29 43.62 13.77 15 26.71 30.76 37.09 48.36 10.18 17.28 15.58 36.19 18.83 55.83 2.9 17.45 4.38 35 8.42 52.29 3.83 16.32 11.23 31.46 19.5 45.94a271.66 271.66 0 0 0 69.72 79.94c3.97 3.05 9.48-2.56 5.46-5.65Z"/><path fill="#004c6b" d="M909.89 2143.19c-3.45-2.66-6.41-4.34-8.69-8l-7.6 6.55c-.48 5.74-1.17 11.44-1.63 17.12-.13 1.58-.3 3.73 1.18 4.89 3.17 2.47 6.46-3.22 9.47-3.76 3.38-.61 6.6 0 9.31-3.15 1.35-1.55 1.45-3.29 3-4.82 1.08-1.07 2.31-1.6 1.94-3.37-.61-2.91-5-3.94-6.98-5.46Z"/><path fill="#3b7c9c" d="M776.88 1941.19c-41.14 24.3-52.69 76.18-30.49 118.49 27.92 53.18 126.11 102.68 152.08 87.33 24.06-14.21 32.55-114.42-3.1-175.34-24.13-41.24-77.37-54.79-118.49-30.48Z"/><path fill="#004c6b" d="M872.78 2124.67c-17.64-2.39-34.82-7.86-51-15.19-15.48-7-30.77-15.54-43.78-26.55-18.78-15.9-32.7-36.31-42.25-58.73a96.45 96.45 0 0 0 10.66 35.48c27.92 53.18 126.11 102.68 152.08 87.33 5.92-3.49 10.89-12.2 14.5-24.24-12.92 3.44-26.76 3.72-40.21 1.9Z"/><path fill="#3ba1b9" d="M862.68 1949.67c-30.42-17.74-64.28-16.35-75.61 3.1s4.14 49.58 34.57 67.32 64.28 16.35 75.62-3.1-4.15-49.58-34.58-67.32Z"/><path fill="#fff" d="M858.79 1947.25c-12.95-7.4-32.14-12.32-46.81-9.78-4.83.84-16.26 2.77-19.06 7.93-2.11 3.89 16.77 3.09 20.67 3.66 29.39 4.26 52.8 17.29 74 38 2.6 2.55 5.29 6.26 8.39 8.2.15.1 3.26 2.77 2.82.86-4.94-21.19-21.86-38.49-40.01-48.87Z"/><path fill="#00347a" d="M3379.91 2651.09c-4.7-45.88-22.86-224.48-31.4-331.85-.13-1.58-.25-3.17-.38-4.74-9.31-117.76-16.14-215.86-16.14-215.86l-272.78 2.49-64.33.59s26.25 141.42 54.21 288.23c18.71 98.2 38.19 198.81 51.08 261.14 3 14.57 5.68 27 7.89 36.9l276.11-11.73-3.12-14.17s-.4-3.91-1.14-11Z"/><path fill="#00347a" d="m2811.93 2029.98-82.47 621.11-3.22 24.27 1.47 12.63h281.62l4.93-36.9 34.46-258.34.37-2.8 37.49-280.94-27.37-7.88-247.28-71.15z"/><path fill="#002a68" d="M2947.47 2651.09c-1.36 15.43-2.28 28.12-2.6 36.9h64.46l4.93-36.9 34.46-258.34-63.72-65.61s-28.47 221.86-37.53 323.95Z"/><path fill="#a74827" d="M2504.55 1530.61c-14.91.74-79.78 23.52-91 35.24s46.84 128.8 46.84 128.8l11.88 6.7 32.25-7.45 17.1-29.48s23.82-28.68 0-72.67c0 0 8.45 5.22 10.59-10.44s-12.75-51.45-27.66-50.7Z"/><path fill="#ffbc96" d="M3458.56 884.23c-32.06 7.37-30.59 28-30.59 28-16.58 7.37-11 24-11 24-27.64 24.69 9.95 46.07 9.95 46.07-2.58 64.11 71.12 60.06 71.12 60.06l29.11-23.21L3538.7 979c-.19-47.45-22.29-78.58-26.34-87.06s-21.74-15.08-53.8-7.71Z"/><path fill="#004c6b" d="m2814.26 1415.79 21.45 31.48c64.36-45.59 227.86-63 227.86-63l16.16-45.65c-211.84 9.43-265.47 77.17-265.47 77.17Z"/><path fill="#b90058" d="M3079.76 1384.31s-129.16 7.81-212.4 37c-20.66 7.29-38.5 15.84-50.76 25.94l27 121.59-12.42 257.22-51 369.67 12.78 33.37s122.18-45.86 307.24-56.34A1316.6 1316.6 0 0 1 3269 2174l-205.42-753.38Z"/><path fill="#990058" d="M2964.35 2088.2c-53.29-63.69-47.64-382.68-43.11-509.54a195.17 195.17 0 0 0-22.89-99.14l-31-58.2c-20.66 7.29-38.5 15.84-50.76 25.94l27 121.59-12.42 257.22-51 369.67 12.78 33.37s122.18-45.86 307.24-56.34c-50.19-19.69-105.08-47.86-135.84-84.57Z"/><path fill="#ffbc96" d="M2997.34 1302.79c-3.42-18.66-5.72-31.52-5.72-31.52l-78 13.68-3.13 61.16-16.19 45.89s-34 92.36 25.45 103.51 105.84-55.53 96.47-105.11c-5.87-31.4-13.01-55.4-18.88-87.61Z"/><path fill="#3b7c9c" d="M2761.72 1480.21s-32.77 22.94-49.17 85.22-59 285.19-59 285.19l26.23 37.7-2.81 58.9-2.12 44.37-45.85 44.25s95.05 36.06 144.23-95.07l25.17-307.41 2.48-30.23-14.54-93.42Z"/><path fill="#004c6b" d="M2693 1940.25a99.32 99.32 0 0 0-16.06 7l-2.12 44.37-45.82 44.22s95.05 36.06 144.23-95.07l25.17-307.41-.08-.12S2772 1913.94 2693 1940.25Z"/><path fill="#3b7c9c" d="m2856.79 1497.83-40.16-50.56c-19.07 0-54.9 32.94-54.9 32.94l8.19 90.14c29.5 218-44.25 698.23-44.25 698.23 47.53-3.28 75.39-47.53 106.53-94.52s75.4-48.08 75.4-48.08l-17.91-611.68Z"/><path fill="#a74827" d="m2640.24 1847.86-118.59-183.44-61.23 30.23s33.26 223.33 121.32 330l9.67 15.76 41.84-8.68 35.67-72 9.45-42-13.79-51.27s-9.58-14.2-24.34-18.6Z"/><path fill="#8ebfc4" d="M2669.78 1838.59a25.61 25.61 0 0 0-29.54 9.27c14.42 16 22.78 40 22.05 61.57s-7.26 42.47-14.65 62.73c-5.29 14.49-11.32 29.22-22.12 40.24s-29.3 17.55-43.78 12.22c-5.29 14.54 4.3 31.71 18.53 37.78s31.2 2.56 44.17-5.87 22.51-21.17 30.62-34.35c17.55-28.51 29.77-61 30.62-94.42s-4.68-77.11-35.9-89.17Z"/><path fill="#3b7c9c" d="m3489.27 1328.65-381.56 22-27.95 78.85 27.95 59.31s40.87 30.54 106.2 53.58a452.58 452.58 0 0 0 84 20.66c80.12 11.45 177.85 1.64 277.74-65.7 82.79-69 92.38-165.28 93.49-183.94.15-2.08.15-3.19.15-3.19l-154.73-53.07Z"/><path fill="#ffbc96" d="m3489.28 1003.49 21 229.74 13.39 18.77 145.59 58.23c-7.46-155.57-130.6-331.2-130.6-331.2Z"/><path fill="#3b7c9c" d="m3297.89 1563.05.08-1-19.92-58.71-51.65-152.5-118.69-.15-44.15 70-27.94 59.53v623.32s76.62-6.54 126 22.37c12.86 7.5 28.77 19.54 47.27 32 52.69 35.75 126.27 75.36 208.25 26.09l-134.6-384.68Z"/><path fill="#004c6b" d="M3427 1526.56c-62.58 1.71-112.67-10-148.94-23.26a332.3 332.3 0 0 1-30.92-13.22 24.19 24.19 0 0 0-34.9 23.06l1.68 29.25 10.33 180.45a104.2 104.2 0 0 1-20 67.71L3193.7 1805c-6.21 8.49-3.68 20.73 5.65 25.57a104.86 104.86 0 0 1 53.28 67.26l41.4 164.32c13.6 54.11-32.48 103.53-85.1 95.8 52.69 35.75 126.27 75.36 208.25 26.09l-134.6-384.68 15.31-236.27c80.12 11.45 177.85 1.64 277.74-65.7 82.79-69 92.38-165.28 93.49-183.94l-37.75-3.19s-64.59 212.59-204.37 216.3Z"/><path fill="#8ebfc4" d="m2800.85 1433.86 28.16 63.49 14.56 90.7 46.12-73.75-66.9-106.69c-9.15 7.39-17.01 15.67-21.94 26.25ZM3074.07 1338.94l-54.66 140.92 75.53 41.06-15.21-73.65 28-96.64s-16.18-16.63-33.66-11.69Z"/><path fill="#f49976" d="M3444.47 886.69c-6 2.07-9.23 5.47-10.5 9.63a3.59 3.59 0 0 0-3.32 1.61 35.33 35.33 0 0 0-5.81 14.94c-9.24 6-11.3 14.32-9.71 22.8-7.88 4-11.75 11.6-11.41 20.7.42 11.44 9.53 20.5 17.81 27.18a3.49 3.49 0 0 0 1 .55c.34 16.89 6.87 33.35 17.92 46.59 3.07 3.69 8.3-1.6 5.25-5.25-8.44-10.14-14.77-22.84-15.6-36.23a67.49 67.49 0 0 1 0-12.87c-.89-9.52 10.31-20.3 11.49-3.47l-.3 4.4c-.17 2.59 1.93 3.72 3.94 3.5a3.7 3.7 0 0 0 2.58 1.31 29.81 29.81 0 0 1 24.39 17.41c2 4.34 8.45.56 6.42-3.75a36.56 36.56 0 0 0-21.39-19 8.85 8.85 0 0 0 4.78-7.51 18.88 18.88 0 0 0 10.32-16.19 14.5 14.5 0 0 0 14.15-14.56c.17-10-3.11-19.89-7.89-28.87a32.48 32.48 0 0 1 19.29 8.55c3.51 3.25 8.78-2 5.26-5.25a40.36 40.36 0 0 0-29.08-11q-1.59-2.4-3.27-4.67c-2.81-3.81-9.27-.11-6.41 3.75 4.32 5.83 8.31 12.09 10.79 19a74.39 74.39 0 0 1 2.94 9.34c.86 4 3.6 19.8-8.27 15.93h-.07c-12.65-12-44.28-45.81-14-54.42 20.41-5.8 49.38-10.31 59.25 14.52 1.75 4.4 8.94 2.48 7.17-2-12.91-32.66-51-25.87-77.72-16.67Zm-19.13 76.72a65.17 65.17 0 0 0-2.34 11.49c-8.75-8.73-19.54-25-5.79-32.13a68.61 68.61 0 0 0 10.08 16.76 12.54 12.54 0 0 0-1.95 3.88Zm23.52 7.28c-.33-6.16-2.09-12.73-8.37-14.65a14.23 14.23 0 0 0-6.83-.46c-7.26-8.7-16.91-23.26-8.8-33a35.21 35.21 0 0 0 2.9 9.71 72.26 72.26 0 0 0 10.34 16.42c3 3.52 6.11 6.94 9.28 10.32 4.32 2.81 9.14 12.9 1.48 11.66Zm16-19.93a11.7 11.7 0 0 1-5.48 11.35c-11-17.63-35.89-32.8-25.2-55.38 4.12 16.21 22.74 36.47 30.68 44.03Z"/><path fill="#8ebfc4" d="M3497.83 1288.49c65.33-.6 176.56 58.18 176.56 58.18l21.31-60c-81.26-50.49-195.51-60.15-195.51-60.15Z"/><path fill="#375a64" d="M2900.15 1350.35c-.32-.17-2.61 7.25-.56 16.32s7.14 14.86 7.37 14.56c.41-.25-4-6.19-5.89-14.89s-.44-15.93-.92-15.99ZM2915.16 1367.77c-3.92-7.14-3.63-14-4.11-14-.17 0-.51 1.67-.31 4.43a26.72 26.72 0 0 0 10 18.51c2.19 1.68 3.78 2.33 3.87 2.17.25-.35-5.61-3.88-9.45-11.11Z"/><path fill="#ffbc96" fill-rule="evenodd" d="M2961.86 1103.06c-88.12-2-91.48 60.74-97.29 119.42-.62 6.37-1.25 12.44-1.76 18.22-1.24 13.45-2.06 25.36-1.95 36.08.32 23.91 5.34 41.94 21.13 58.39 6 6.26 9.27 8.54 15.06 13.45 0 0-1.78 13-2.34 42.17a66.8 66.8 0 0 0 12.32 13c27.33 22.41 66.71 22.48 94.87 1.13l14.85-11.26c4-49.79 5.7-77.47 7.34-81.61 2.41-6 41.26-35.24 45.7-94.29.26-30.29-10.05-49-25.32-70.1-17.26-23.86-42.47-43.66-82.61-44.6Z"/><path fill="#f49976" d="m2897.05 1348.62-2.35 31.25c65.77 17.87 89.39-42.1 89.39-42.1s-35.68 29.74-87.04 10.85Z"/><path fill="#ffbc96" fill-rule="evenodd" d="M3070.81 1230.49c-5.38-2.74-24.49-3.55-36-8.11 0 0-2.54 11.55-4.15 26.66s.43 47.12 13 50.11c16.68 4 37.68-28.6 39.28-43.71 1.06-10.44.06-18.75-12.13-24.95Z"/><path fill="#f49976" d="M3060.64 1240.15c-13.6 2.88-24.17 12.84-29.71 28a3.75 3.75 0 0 0 2.21 4.76 5.34 5.34 0 0 0 .9.2 3.74 3.74 0 0 0 3.86-2.41c4.64-12.73 13.26-21 24.27-23.33a3.72 3.72 0 0 0 2.86-4.4 3.75 3.75 0 0 0-4.39-2.82Z"/><path fill="#f49976" d="M3047.85 1248.9a3.64 3.64 0 0 0-5.07 1.25 3.73 3.73 0 0 0 1.24 5.09c7.23 4.31 11.26 10.48 11.38 17.38a3.69 3.69 0 0 0 3.3 3.62h.45a3.7 3.7 0 0 0 3.65-3.77c-.17-9.47-5.49-17.89-14.95-23.57ZM2923.38 1202.25a3.73 3.73 0 0 0-4.26 3c-1.8 10.94-5.09 21-8 29.88-4.58 13.95-8.22 25-4 33.12 2.09 4 5.89 6.79 11.53 8.54.2 0 .42.09.61.11a3.7 3.7 0 0 0 1.49-7.22c-3.63-1.09-6-2.71-7.1-4.84-2.75-5.35.61-15.58 4.52-27.38 3-9.15 6.42-19.49 8.33-31a3.69 3.69 0 0 0-3.12-4.21Z"/><path fill="#451512" fill-rule="evenodd" d="M2883.57 1177.56c-12.36.47-22.61 5.36-22.49 8.61s9.42 1 21.73.53 28.18.58 28-2.62-14.81-6.96-27.24-6.52ZM2971.44 1182.81c-21.06-1.13-27.17 2.34-27.37 6-.18 3.22 15.62 2.48 28 3.13s28.8 4.55 29 1.39-17.26-9.83-29.63-10.52Z"/><path fill="#f49976" d="M2983.21 1246.83a18.53 18.53 0 1 0 16.65 20.22 18.52 18.52 0 0 0-16.65-20.22ZM2867.6 1240.52a17.07 17.07 0 0 0-4.8.18c-1.23 13.45-2.05 25.36-1.94 36.08a17.37 17.37 0 0 0 3.18.61 18.52 18.52 0 1 0 3.56-36.87Z"/><path fill="#451512" d="M2958.13 1221.89a8.89 8.89 0 1 0 8.2 9.53 8.89 8.89 0 0 0-8.2-9.53ZM2885.23 1214.84a8.89 8.89 0 1 0 8.2 9.53 8.89 8.89 0 0 0-8.2-9.53Z"/><path d="M3073.7 1099.43a63.63 63.63 0 0 0-10.22-2.6s6.75-19.72-5.63-29.75c-31.65-25.59-92-23.84-123.19-18.74A145.78 145.78 0 0 0 2920 1051a92.59 92.59 0 0 0-14.17 4.46c-22.17 9.37-42.47 26.65-51.18 45.06l11.94 1.16s-26.8 26.11-16.34 44.31c2 3.56 18.28 8.27 37.34 10.68 75.57 9.7 141.79-10.63 141.79-10.63s-8.8 33.54-8.2 44c.9 16.18 10.85 56.07 10.85 56.07 5.34-4.67 10.86-9.42 15.61-13.47a20.45 20.45 0 0 1 26.7.42c3.34-6.58 6.3-12.86 8.93-18.9 30.48-27 18-80.84 2.9-101.8-3.54-4.86-6.93-10.98-12.47-12.93Z"/><path fill="#2f2f2f" d="m3009 1121.62-139.26 10.05c75.91 19.19 139.26-10.05 139.26-10.05ZM2975.49 1088.44l-102.3 13.61c55.12 17.19 102.3-13.61 102.3-13.61Z"/><path d="M3036 1233.68c-3.08 2.26-5.35-9.26-6.93-1.44-.16.77-28.3 49.31-28.59 50.11-3.35 9.13-18.43 15.36-29 14.47-5.36-.45-10-1.85-13.29-5.6-8-9.21-24.8-10.16-43-10.16-17.46 0-25.48-.5-29.71 6.9-3.52 6.17-15.53 2.54-16.2 1.36-4.18-7.36-9-16.61-11.12-13.35-9.47 14.31-7.41 44.86 1.24 57.83 26.89 40.32 84.42 32 115.94 21.1 8.37-2.9 42.59-12.93 43.41-53.24.51-24.4 24.62-73.43 17.25-67.98Z"/><path fill="#192039" d="m2941.19 1304.64-48.91-1.46a5.77 5.77 0 0 0-5.81 7.08c2.25 9.54 9 25 28.86 24.64 23-.47 29.52-14.76 31.35-23.47a5.72 5.72 0 0 0-5.49-6.79Z"/><path fill="#fff" d="M2902.75 1311.23a81.3 81.3 0 0 0 13.06.86c4.21.15 8.42.45 12.62.19 2.53-.15 5.44-.41 7.64-1.79s2.59-3.51 2.61-5.92l-44.41-1.33c.96 4.18 3.19 6.85 8.48 7.99Z"/><path fill="#df3243" d="M2911.44 1319.46a34.15 34.15 0 0 0-17.52 6.34c4.44 5.26 11.15 9.3 21.41 9.1 13.09-.27 20.83-5 25.41-10.64-9.36-3.39-19.39-5.49-29.3-4.8Z"/><path fill="#a4c639" d="M2901.81 1075.8h.12a3.15 3.15 0 0 0-.39.75c-3.23 9.41 39.82 32.69 96.15 52s104.61 27.34 107.83 17.94a3.36 3.36 0 0 0 .15-.84h.12l-1.07-329.33Z"/><path fill="#65952b" d="M2901.81 1075.8h.12a3.15 3.15 0 0 0-.39.75c-.42 1.22-1.33 5.72 11.23 13.54 69.17-26.9 140.11-138.65 187.81-268.43 0 0-74.06 120.72-94.35 151.91-51.14 78.67-104.42 102.23-104.42 102.23ZM3104.72 816.41v11.12a93.8 93.8 0 0 0 0-11.12Z"/><path fill="#65952b" d="M2934.17 1102.47c5.57 2.81 11.77 5.7 18.4 8.62 66.53-49.28 121.43-115.94 152.48-192.67l-.29-90.89c-1.52 35.41-18.84 150.59-170.59 274.94ZM2997.69 1128.59c-1.55-.52 1.57.54 0 0Z"/><path fill="#65952b" d="M2975.61 1120.66c10 4.06 10.75 4 22.08 7.93 42.63-31.38 83-84.54 107.62-130.81l-.1-31.17c-32.02 65.86-80.82 121.3-129.6 154.05ZM3026.09 1138c14.86 4.58 19.3 5 31.53 7.64 1.08-.86 2.16-1.72 3.22-2.61a293.27 293.27 0 0 0 44.79-47.23l-.16-47.88c-23.21 37.84-44.12 62.83-79.38 90.08Z"/><path fill="#00347a" d="M3104.72 816.41c15.12-19.54 48.72-29 48.72-29l-6.44-16.92c-35.11.34-42.28 45.92-42.28 45.92Z"/><path fill="#00347a" d="M3104.72 816.41c24.65-1.73 54.06 17.06 54.06 17.06l8.37-16.06c-23.65-26-62.43-1-62.43-1ZM3100.37 754.3c-23.9 25.76 4.29 62.29 4.29 62.29-3.81-24.41 12.42-55.31 12.42-55.31Z"/><path fill="#00347a" d="m3070.07 772.33-15.71 9c5.92 34.64 52.06 34.48 52.06 34.48-21.7-11.81-36.35-43.48-36.35-43.48Z"/><path fill="#fff" d="m2926.58 1079.75 89.12-133.77-99.2 124.16 10.08 9.61z"/><path fill="#ffbc96" d="M3433.5 893.41c-21 4.46-13.12 100.83 6.39 110.64 18.82 9.47 63.32 6.34 74.84 3.11s17.46-71.63 8.78-80.31-68.97-37.85-90.01-33.44Z"/><path fill="#fff7f7" d="M3405.6 602c-8.5 60.34-7.25 132.55 3.34 184.83 11.22 55.46 32.55 86.28 53.59 77.43 8.62-3.56 17.28-13.54 24.41-31.21 11-27 17.57-70.07 19.8-113.2 1.93-36.59 1-73.49-1.21-109.09-33.27-2.98-66.62-5.82-99.93-8.76Z"/><path fill="#b1e6f8" d="M3483.58 1012.47c-20.76 1.22-12.28-7.75-29.4-19.58-2.7-36.49 2.44-86.86 13.19-121.61a116 116 0 0 1-35-1.46c12.36 33.24 15 85.71 7.08 120.31-15.52 10.72-11.38 17.34-30.2 17.4-10.64-.39-1.95 10.74 6.28 10.93l63.62 3.07c6.63.15 10.09-8.43 4.43-9.06Z"/><path fill="#b1e6f8" d="M3505.53 610.74c2.18 35.6 3.14 72.5 1.21 109.09-2.23 43.13-8.84 86.16-19.8 113.2-7.13 17.67-15.79 27.65-24.41 31.21-21 8.85-42.37-22-53.59-77.43-10.59-52.28-11.84-124.49-3.34-184.83-1.56 0-3.08-.19-4.64-.35-7.7 48.47-8.63 112.25-3.16 161s17.48 88 32.34 106.65a37.39 37.39 0 0 0 10.15 9.09 19.69 19.69 0 0 0 18.31 1.52c13.63-5.14 27.07-24.23 37.49-55.29 17.87-53.32 19.78-141.47 13.66-213.55-1.4-.12-2.81-.15-4.22-.31Z"/><path fill="#a02a4c" d="M3402.66 712.45c3 52.39 12.44 99.91 26.42 125.85s32.38 28.71 47.61 3.87 26.48-77.79 26.94-131.8c-33.63 10.33-67.63 9.28-100.97 2.08Z"/><path fill="#b1e6f8" d="M3480.43 619.83c-.79-.26-.76.21-1.54-.05-1.44 83.2-11.32 166.52-27.75 233.77 15.3.36 31.33-26.15 40.39-69.31s12.48-120.14 8.83-164Z"/><path fill="#d72a4c" d="M3451.14 853.55c15.3.36 31.33-26.15 40.39-69.31 4.09-19.49 7-45.86 8.67-73a172.43 172.43 0 0 1-26.82 5.33c-4.72 49.19-12.25 96.08-22.24 136.98Z"/><path fill="#ffbc96" d="M3465.8 932.05c1.27-.11 18.9-1.4 16.66-13.09-2.35-12.11-23.83-14.88-23.83-14.88s14.54-1.58 8.61-11c-12.74-20.23-71.82-10.43-75.57 4.23-1.88 7.27 5.29 14.3 5.29 14.3s-7.57 4.34-7.14 11.31c.51 8.74 9.46 11.91 9.46 11.91s-7.48 5.41-6.89 10.41c1.18 9.75 12.49 13.25 12.49 13.25s-7.81 4.79-4.59 13.86c6.11 17.2 32.24 23.3 32.24 23.3-.05-.69.85-14.37.85-14.37 12.47-5.23 47.33 10.77 49.58-5.77 1.3-9.63-12.15-16.25-13.18-16.74 1.16.12 19.09 1.86 17.94-11.05-1.11-12.46-20.78-15.51-21.92-15.67Z"/><path fill="#f49976" d="M3459.41 903.92c-19.89-4.52-42.82-1.48-61.46 6.49a.16.16 0 0 0 .11.29c20.86-5.21 39.9-6.27 61.29-5.54.75.03.71-1.1.06-1.24ZM3466.36 931.39c-22.32-7.9-48.23-5.19-67.49 2.92-.23.09-.13.47.09.41 18.76-4.79 52.44-6.42 67.67-2.29.91.25.49-.76-.27-1.04ZM3471.38 959.06c-9.4-5.26-19.12-7.47-29.91-7.52-11.26-.06-25.64 1.09-35.92 6.05-.22.11-.18.52.11.47 22.13-4.11 43.8-5 65.49 1.76.46.18.6-.56.23-.76ZM3469.79 933.15a19.32 19.32 0 0 0 5.56-1.39 47 47 0 0 0-5.2-1.83Z"/><path fill="#f49976" d="M3482.27 935.53a38.18 38.18 0 0 0-6.92-3.77 19.32 19.32 0 0 1-5.56 1.39l.36-3.22a47 47 0 0 1 5.2 1.83 14.31 14.31 0 0 0 6.31-5 13.55 13.55 0 0 0 2.19-6.5 9.7 9.7 0 0 0-2-6.57c-2.86-3.62-7-5.4-10.89-6.86a56.12 56.12 0 0 0-12.29-2.8 68.05 68.05 0 0 1 11.88 3.83c3.74 1.67 7.46 3.84 9.67 7a7.48 7.48 0 0 1 1.38 5.21 10.94 10.94 0 0 1-2 5.15c-2.2 3-6.21 4.39-9.85 4.61l-9.13.55 8.77 2.66a37.61 37.61 0 0 1 10.94 5.26c3.22 2.32 5.81 5.49 6.13 9.07.41 3.74-1.3 7-4.76 8.37s-7.69 1.62-11.55 1.15l-10.77-1.3 9.71 4.73a35.68 35.68 0 0 1 7.52 4.92c2.21 2 4.14 4.29 4.79 6.86a6.9 6.9 0 0 1-2 7c-2 1.67-5.14 2.27-8.15 2.55-6.14.49-12.47-.34-18.78-.84-3.16-.27-6.34-.56-9.53-.68s-6.49-.19-9.46 1.08c3.06-.94 6.28-.48 9.39-.21s6.27.89 9.4 1.41a102.64 102.64 0 0 0 19.14 1.85c3.24-.19 6.76-.51 9.86-2.74a9.76 9.76 0 0 0 3.38-10.18c-.9-3.65-3.26-6.42-5.71-8.67-.76-.68-1.55-1.31-2.35-1.91a34.22 34.22 0 0 1-7-.27l1.06-3.43a39 39 0 0 1 5.94 3.7 22.16 22.16 0 0 0 6.65-1.49 11.13 11.13 0 0 0 5.63-5A12.53 12.53 0 0 0 3490 947c-.55-5.06-4.1-8.94-7.73-11.47Z"/><path fill="#f49976" d="M3469.49 960.52a34.22 34.22 0 0 0 7 .27 39 39 0 0 0-5.94-3.7Z"/><path fill="#ffbc96" d="M3445.37 885.27c-4.67 10.58-11.19 59.6-1.37 61.1 12.68 1.94 19.22-18 21.34-31.2 0 0 16.32 26 37.82 20.06 13.48-3.74 20.85-8.18 20.85-8.18s-62.95-77.39-78.64-41.78Z"/><path fill="#f49976" d="M3464 916c.73 1.09 1.5 2.11 2.29 3.11.22-1.22.43-2.44.63-3.67Z"/><path fill="#f49976" d="M3479.84 929.06a49.11 49.11 0 0 1-7.29-6.76 52.67 52.67 0 0 1-5.85-7.94l-2.07-3.5-.85 4.06a99.89 99.89 0 0 1-3.29 12.9 39.93 39.93 0 0 1-5.66 11.59c-2.45 3.26-6.08 6-9.53 5.44-3.08-.23-4.06-5.1-4.38-9.33a129 129 0 0 1-.2-13.36c.1-4.5.26-9 .64-13.47.94-8.89 1.83-18 5.5-26.3-2.48 3.83-3.88 8.25-5.14 12.62a100.18 100.18 0 0 0-2.72 13.41 156.72 156.72 0 0 0-1.66 27.37 25.34 25.34 0 0 0 1.23 7.16 9.54 9.54 0 0 0 2.13 3.57 6.8 6.8 0 0 0 1.82 1.39 7.1 7.1 0 0 0 2.16.68 11.53 11.53 0 0 0 7.79-1.75 21.18 21.18 0 0 0 5.38-5.16 41.11 41.11 0 0 0 6.06-12.75 78.91 78.91 0 0 0 2.36-9.83c-.79-1-1.56-2-2.29-3.11l2.92-.56c-.2 1.23-.41 2.45-.63 3.67a61 61 0 0 0 4.4 5 52 52 0 0 0 8 6.64 35.25 35.25 0 0 0 9.43 4.35 26.7 26.7 0 0 0 10.19 1 30.09 30.09 0 0 1-9.84-2 36.64 36.64 0 0 1-8.61-5.03Z"/><path d="M1823 1241.7c-3-14.41 0-29.28 1.24-43.93 2.78-31.56-5.17-63-19.46-91.33-18.3-36.23-72.77-59.75-99.28-56.68l17.29 49.85c13.65 17.56 18.31 40.57 19.12 62.8 2.89 79.74-37.89 154.16-51.6 232.76-3.31 19-5 38.38-2.42 57.44 7.35 53.51 52.25 99.68 105.53 108.52 18.18 3 40.79-.34 48.38-17.13 9.78-21.67-13.17-45.11-11.43-68.82 1.55-21.22 21.58-35.34 35-51.87 24.26-29.91 27.28-75.31 7.18-108.17-15.55-25.43-43.47-44.25-49.55-73.44Z"/><path fill="#322b29" d="M1831.85 1304.56c-11.44-23.07-29-44.38-32.86-70.53-2.18-15 2-29.55 5.24-44.09a124.52 124.52 0 0 0 2.68-39.76 120.35 120.35 0 0 0-9.92-37.09 123.86 123.86 0 0 0-9.52-16.52 117.37 117.37 0 0 0-11.65-15 73 73 0 0 0-6.9-6.61.49.49 0 0 0-.69.69 155.89 155.89 0 0 1 12.68 14.74c3.71 5.07 7.68 10.65 9.94 16.55s5 11.65 7 17.72a120.57 120.57 0 0 1 4.46 18.56 112.64 112.64 0 0 1-.52 38.46c-2.82 14.91-8.17 29.52-8 44.88.38 26.37 16.44 48.84 28.67 71.06 6.78 12.31 12.4 25 15.28 38.83 3 14.15 3.51 29.36.5 43.56a52.66 52.66 0 0 1-7.39 18.46c-3.79 5.65-9.18 10-14.67 13.9-10.52 7.45-22.3 14.48-26.66 27.4a21.4 21.4 0 0 0-1.07 8.59c0 .59 1 .82 1.12.15 2-13.74 14.13-22.14 24.87-29.23 5.67-3.74 11.49-7.52 16.17-12.51a48.67 48.67 0 0 0 10.29-17.47c4.7-13.46 5.14-28.68 3.55-42.73a126.55 126.55 0 0 0-12.6-42.01ZM1868.09 1324.35a84.36 84.36 0 0 0-6.23-10.83 111.11 111.11 0 0 0-7.66-9.79c-.66-.76-1.34-1.51-2-2.25-.4-.45-1.22.16-.85.65a115.75 115.75 0 0 1 6.86 10c2.13 3.46 4.15 7 5.94 10.66a94.8 94.8 0 0 1 7.88 22.59 73.14 73.14 0 0 1 1.08 22.87 69.66 69.66 0 0 1-5.9 21.11 78.45 78.45 0 0 1-5.54 9.67 57.85 57.85 0 0 1-6.79 8.49c-.65.67-1.23 1.41-1.85 2.11s.16 1.67.92 1.19a39.34 39.34 0 0 0 8.36-7.68 51.67 51.67 0 0 0 6.45-9.53 68.86 68.86 0 0 0 7.19-21.84 75.72 75.72 0 0 0-.22-23.85 84.49 84.49 0 0 0-7.64-23.57ZM1796 1399.66Z"/><path fill="#322b29" d="m1788 1404.51-.34.13c-.07.07-.14.12-.2.19Z"/><path fill="#322b29" d="M1805.67 1297.6q-3.12-8-6.6-15.88c-2.29-5.18-4.88-10.23-7.09-15.44-.58-1.35-1.15-2.71-1.71-4.06-.27-.66-1.34-.4-1.09.3 1.85 5.21 3.65 10.45 5.53 15.66s3.89 10.29 5.87 15.42a234.56 234.56 0 0 1 10.11 31.45 115.48 115.48 0 0 1 3.21 30.21 76.64 76.64 0 0 1-6.39 28.84 54.19 54.19 0 0 1-3.33 6.25c-.6 1-1.23 1.9-1.9 2.82-.54.73-1.16 1.5-1.93 2.38s-1.52 1.64-2.34 2.41c-.4.36-.8.72-1.21 1.06l-.58.48a1.51 1.51 0 0 0-.2.16c-.08.06 0 0 0 0s-.3.22-.3.21a34.24 34.24 0 0 1-5.53 3.22 9.18 9.18 0 0 0-2.58 1.55l.34-.13-.54.32c.06-.07.13-.12.2-.19-.42.17-.83.35-1.24.5a.9.9 0 0 0 .23 1.76c.51 0 1 0 1.53.08a7.66 7.66 0 0 0 2.08.15 14.86 14.86 0 0 0 3.5-1.11 24.14 24.14 0 0 0 6-3.81 40.53 40.53 0 0 0 8.92-10.92c5.26-9.08 8-19.48 9-29.87a110.29 110.29 0 0 0-2-31.8 194.34 194.34 0 0 0-9.96-32.02ZM1772.93 1311.84a.62.62 0 0 0-1.2.33 70.77 70.77 0 0 1 1.82 27.33 79.08 79.08 0 0 1-3 13.34 68.63 68.63 0 0 1-5.23 12.48c-1.23 2.28-2.41 4.56-3.8 6.75s-2.74 4.32-4.12 6.47c-.32.5.36.93.76.59a32 32 0 0 0 5-5.06 71.33 71.33 0 0 0 4.08-5.86 60.65 60.65 0 0 0 5.76-12.9 69.59 69.59 0 0 0 3.2-27.9 65.31 65.31 0 0 0-3.27-15.57Z"/><path fill="#473933" d="M1883.58 1313.37c-9.9-12.31-21.26-23.39-31.43-35.48a188.27 188.27 0 0 1-14.58-19.49c-4.43-6.9-8.54-14.19-10.32-22.26-3.66-16.65.84-33.77-1.19-50.56-1-8-3.65-15.78-6.82-23.16a115.43 115.43 0 0 0-11.83-21.19c-2.2-3.12-4.56-6.11-7.06-9-.46-.53-1.19.23-.76.76a112.13 112.13 0 0 1 21.93 44.06c4.09 16.89-.19 33.93.91 51a57.35 57.35 0 0 0 6.5 23.11 141.63 141.63 0 0 0 12.88 20.06c9.59 12.71 20.59 24.23 31.18 36.09a134.42 134.42 0 0 1 14.45 18.49 88.44 88.44 0 0 1 9.21 20 83.38 83.38 0 0 1 1.91 42.67 90.42 90.42 0 0 1-7.29 20.73c-3 6.13-6.56 12.27-11.23 17.3-9.33 10-21 17.58-30.72 27.22a50.3 50.3 0 0 0-11.09 15.87 55 55 0 0 0-4.36 22.33c.17 16.06 6.17 31.57 13.39 45.69 1.87 3.66 3.87 7.24 6 10.75a2.24 2.24 0 0 0 3.87-2.26c-7.94-14.39-15.6-29.26-18.07-45.71-2.2-14.63.85-30.09 11-41.21 9.21-10 20.74-17.65 30.44-27.19 9.89-9.74 16.55-23 20.43-36.27a88.3 88.3 0 0 0 1.81-42.51 94.31 94.31 0 0 0-19.16-39.84Z"/><path d="M1665.68 1042.34c-44.27-1-86.58 18.7-116.83 50.55-21.68 22.84-34.63 52.36-43.89 82.07-6.11 19.56-8.69 41.23-14.57 61.32-6.36 21.76-19.66 38.77-35.49 54.48-17.13 17-40.8 25.65-59.71 40.64-33.33 26.39-59.12 84.3-27.29 121.79 11.62 13.68 31.71 18.47 40.88 34.51 11.75 20.55-2 49.5 11.51 68.91 5.88 8.43 15.92 13.11 26 15.14 34.22 6.9 66.81-15.86 89-42.77 43.34-52.47 90-81.64 103.73-149.52 17.64-64.14-28.64-216-47.19-279.86l157.17-30.76c-21.46-20.78-53.48-25.79-83.32-26.5Z"/><path fill="#473933" d="M1504.34 1203.13c-9.36 33.67-31.78 62.36-59 83.65-15.45 12.08-32.78 21-49.48 31.15-15.63 9.5-30.17 20.9-41.66 35.23-10.67 13.31-18.81 29-21.5 46-2.58 16.26-.55 33.3 6.72 48.14a62.93 62.93 0 0 0 14.53 19.26c5.76 5.14 12.41 9.16 19 13.09 12.23 7.28 26.69 15.15 30.46 30.05 2.41 9.5.76 19.49 2.56 29.1a33.37 33.37 0 0 0 13.31 20.82c14.53 10.73 34.63 9.18 49.38-.3a62.22 62.22 0 0 0 10.6-8.6c1.94-2-.94-4.73-3-3-12.83 11-31.06 18.36-47.49 11.11-7-3.11-13.37-8.69-16.08-16-3.34-9-1.87-18.87-3-28.25a38.39 38.39 0 0 0-9.38-21.59c-4.8-5.44-10.92-9.62-17-13.42-6.31-3.91-12.84-7.47-19-11.69a60.23 60.23 0 0 1-16.18-16.12c-8.8-13.23-12.36-29.34-11.34-45.09 1.07-16.55 7.77-32.2 17.3-45.62 10.15-14.27 23.57-26 38.18-35.58 16.36-10.68 34-19.28 49.69-30.94 26.79-19.88 50.78-46.68 60.72-79.1q1.79-5.87 3-11.87a.73.73 0 0 0-1.34-.43Z"/><path fill="#322b29" d="M1576.71 1320.56c-13.46 15.41-23.43 33.19-31.64 51.85-8.37 19-14.11 39-19.34 59.06-2.6 10-5.07 20-7.62 30.08s-5 19.82-8.15 29.53c-5.92 18.21-14.73 37.22-31.1 48.3-8.53 5.78-19.29 9.37-29.65 7.6a35 35 0 0 1-12.49-5 29.36 29.36 0 0 1-5.12-4 30.73 30.73 0 0 1-4.62-4.92 26.36 26.36 0 0 1-3-6.06.43.43 0 0 0-.83.23 25.59 25.59 0 0 0 1.94 6.75 26.45 26.45 0 0 0 3.29 6.08 30.34 30.34 0 0 0 11.06 8.65c9.82 4.49 21 4.16 31 .35a58.8 58.8 0 0 0 25-18.74 101.77 101.77 0 0 0 14.54-26.62 275.27 275.27 0 0 0 8.87-29.25c2.67-10.22 5.17-20.49 7.73-30.74 5.14-20.6 10.71-41.06 17.74-61.11 6.84-19.52 16.11-38.34 28.81-54.74 1.58-2 3.21-4 4.89-6 .82-.86-.5-2.22-1.31-1.3ZM1446.1 1505.79Z"/><path fill="#322b29" d="M1572 1306.32c-7.8 4.17-14.84 10.12-21.15 16.28a164 164 0 0 0-17.44 20.24c-11 15-19.52 31.58-26.65 48.67-8.08 19.36-14.72 39.28-22.61 58.72-3.87 9.52-8.06 18.93-12.86 28-4.08 7.72-8.8 15.3-15.36 21.17a37 37 0 0 1-4.9 3.72c-.87.56-1.76 1.07-2.68 1.55-.46.24-.92.48-1.4.7l-.68.31-.17.08-.17.06a26.11 26.11 0 0 1-10.3 1.93 26.92 26.92 0 0 1-9.91-1.94 35.62 35.62 0 0 1-4.21-2.18 16.89 16.89 0 0 1-3.73-2.91 22.23 22.23 0 0 1-1.62-1.74 9.15 9.15 0 0 1-1.37-2c-.41-1-2.09-.57-1.67.46.33.81.48 1.71.82 2.54a20.56 20.56 0 0 0 1.18 2.46 18.72 18.72 0 0 0 3.3 4 22 22 0 0 0 9.82 5.09 31.85 31.85 0 0 0 22.59-2.67c8.13-4.31 14.32-11.47 19.24-19.11 5.36-8.34 9.54-17.47 13.48-26.55 8.49-19.58 15.18-39.86 22.68-59.83 6.74-18 14.21-35.75 24.24-52.15a144.15 144.15 0 0 1 16.25-22.1 117.52 117.52 0 0 1 20.46-17.92c1.84-1.25 3.71-2.47 5.56-3.7a.73.73 0 0 0-.74-1.18ZM1556.28 1104.59A129 129 0 0 0 1531 1139a217.31 217.31 0 0 0-16 40.62 259.49 259.49 0 0 0-8.16 48.18c-1.26 15-1.13 30.08-3.89 44.9-2.63 14.17-8 27.47-17.61 38.39-9 10.32-20.65 18.15-32.67 24.58-13.57 7.26-28.24 12.1-41 20.94a90 90 0 0 0-29.1 32.86 69.31 69.31 0 0 0-7.33 38c1.07 11.57 3.54 24.27 11.15 33.43a42.77 42.77 0 0 0 5.82 5.36c.69.58 1.69-.41 1-1-4.12-3.46-6.51-9.38-8.5-14.22a74 74 0 0 1-4.86-17.07c-1.9-12.42-.91-25.3 3.86-37 5.47-13.38 15.13-24.81 26.36-33.76 12.11-9.64 26.82-14.69 40.55-21.5 12.08-6 23.44-13.31 33.08-22.81a79.37 79.37 0 0 0 20.87-35.35c4-14.16 4.67-29 5.36-43.61.35-7.51.47-15.06 1.19-22.54a233.43 233.43 0 0 1 3.64-24.38 227.27 227.27 0 0 1 13-43.28 135.21 135.21 0 0 1 22.82-36.16q3.45-3.92 7.24-7.52c1.06-.89-.51-2.46-1.54-1.47Z"/><path fill="#322b29" d="M1514 1249.24c0-.13-.22-.14-.22 0-.06 2.55-.25 5.07-.43 7.61s-.1 4.81-.21 7.21q-.36 7.55-1.35 15c-.66 4.92-1.53 9.82-2.6 14.66a97.44 97.44 0 0 1-3.81 14 43.3 43.3 0 0 1-6.41 10.68 77.22 77.22 0 0 1-8.61 9.11 136.3 136.3 0 0 1-21.85 16c-8 4.82-16.26 9-24.28 13.7a190.08 190.08 0 0 0-21.75 14.47 89.56 89.56 0 0 0-17.81 18.25 65.18 65.18 0 0 0-9.31 19.62 98.6 98.6 0 0 0-3.79 23.07c-.33 7.28 0 15 2 22 .45 1.56 1.09 3 1.62 4.57.15.46.88.26.73-.2a33 33 0 0 1-1.09-5c-.3-1.71-.57-3.4-.77-5.12a82.11 82.11 0 0 1-.49-11.09 95.87 95.87 0 0 1 3.38-23 73.79 73.79 0 0 1 8.28-19.88 78 78 0 0 1 16.88-18.49 160.25 160.25 0 0 1 21.25-14.31c7.94-4.62 16-9.11 23.8-13.87a150.8 150.8 0 0 0 22.38-16.08c6.15-5.49 12.41-11.75 16-19.31a65.62 65.62 0 0 0 4.15-12.59q1.77-7.2 2.93-14.53c.76-4.82 1.33-9.68 1.7-14.55q.27-3.59.39-7.19a56.85 56.85 0 0 0 0-7.61c-.25-2.32-.47-4.73-.71-7.13ZM1442.39 1467.41ZM1431.72 1473.75h-.06c-.29.16-.01.03.06 0ZM1454.18 1455.45ZM1416.67 1475.92Z"/><path fill="#322b29" d="M1493 1376.53q-2.13 3.24-4 6.63c-1.26 2.26-2.57 4.47-3.67 6.82-2.22 4.71-4.16 9.54-6.15 14.35s-3.9 9.68-5.79 14.55c-1.82 4.69-3.67 9.38-5.79 13.94a132.11 132.11 0 0 1-6.34 12.08q-1.76 2.94-3.65 5.78-.94 1.41-1.95 2.79c-.32.44-.64.88-1 1.32l-.46.62c.21-.26-.1.13 0 0l-.07.09-.3.38a69.11 69.11 0 0 1-9.21 9.68c-.4.35-.82.69-1.23 1l-.6.47-.29.24-.09.07-.1.07c-.88.67-1.78 1.31-2.7 1.93a50.69 50.69 0 0 1-5.75 3.35c-.49.24-1 .48-1.48.7l-.66.3h.06c-.07 0-.35.16-.06 0l-.42.17c-1 .38-1.93.71-2.92 1a27.8 27.8 0 0 1-3 .71l-.7.12h-.21c.08 0 .13 0 0 0s-.09 0 0 0h-.19c-.52.06-1 .11-1.57.14-1 .06-2 .15-3 .14-.47 0-.95 0-1.43-.06h-.24.15-.15l-.51-.06-.73-.08-.44-.07-.65-.13c-.48-.11-.95-.24-1.42-.39a11.29 11.29 0 0 1-2.48-1.13 12.51 12.51 0 0 1-2.15-1.69c-.64-.62-1.79.19-1.27 1a15 15 0 0 0 10.13 6.43 25 25 0 0 0 3.35.35 21.12 21.12 0 0 0 3.55-.33 30.62 30.62 0 0 0 6.09-1.57c8.64-3.17 16.21-9.17 22.24-16a96.06 96.06 0 0 0 15-23.68c4.31-9.38 7.77-19.15 11.12-28.9 1.73-5 3.54-10 5.65-14.93 1-2.41 2.19-4.77 3.24-7.18a77.19 77.19 0 0 1 3.52-7.05c.66-1.16 1.34-2.3 2-3.44.32-.6-.79-1.23-1.28-.53ZM1418.06 1476.08h-.15Z"/><path fill="#322b29" d="M1424.35 1475.82c.16 0 .11 0 0 0s-.19.03 0 0Z"/><path fill="#ffbc96" d="M1440.89 2688h268.21c3-12.5 45.64-235.26 61.2-335.15q2.34-15 4.75-30.29c.21-1.37.42-2.74.65-4.11l-313.56 4.25c-3.34 77.02-20.76 352.71-21.25 365.3Z"/><path fill="#ffbc96" d="m1775.05 2322.55-8.28.14s1.15 10.78 3.53 30.15c6.36 51.86 21.5 165.29 46.81 298.25q3.48 18.22 7.2 36.9h239.17c-1.78-12.29-25.8-369.9-25.8-369.9Z"/><path fill="#fd9f05" d="M1563.87 1859.68s-5.2 79.89-11.71 143.51c0 0 191.81 115 383.63-34.37l-37.88-106.6Z"/><path fill="#00347a" d="M1884.14 1753.23c-12.46-143.79 25.36-235 1.84-289.81-11-25.6-56.87-50.46-96.46-67.82-5.65-2.48-11.16-4.8-16.43-6.95-25.73-10.5-45.55-16.89-45.55-16.89l-105-5.7s-7.22 3.47-18.86 9.42c-5.61 2.86-12.24 6.3-19.59 10.19-47.61 25.26-125.18 69.75-147 102.39-35.2 52.53 2.41 111.11 45.75 206.63 32.27 71.12 64.66 145.94 69.31 199.5 1.94 22.35 48.39 30 106.91 28.86 105.55-2.06 243.14-31.27 237-55.58-10.34-40.79-8.92-79.74-11.92-114.24Z"/><path fill="#0059da" d="M1884.44 1653.74c-11.63 28.48 13.06 61 13.06 61 34.64-9.92 51.26-63.14 51.26-63.14s-52.68-26.33-64.32 2.14Z"/><path fill="#a74827" d="M2135.84 1620c-29.18-10.11-160.93-92-160.93-92-52.48 39.59-122.8 72.18-82.16 119 0 0 215.76 117 283.48 95.52 108.76-34.53 178.41-153.51 178.41-153.51l-34.37-42.01s-155.27 83.09-184.43 73Z"/><path fill="#7e240d" d="M2138.08 1623.1c-.52-2.94-4.95-1.56-4.44 1.34l7.68 43.48c.51 2.94 4.94 1.56 4.43-1.34q-3.84-21.75-7.67-43.48Z"/><path fill="#00347a" d="m1750.57 1637 146.93 77.71c17.54-42.37 29.87-72.17 61.22-121.11 13.74-21.44 40.84-55.18 40.84-55.18-51.21-29.33-90.58-58.87-129.85-95.29Z"/><path fill="#001e55" d="M1311.6 1519.06s-15.67 42.43 3.55 74.18c0 0 32.36 2.17 43.52-27.49s-47.07-46.69-47.07-46.69Z"/><path fill="#ffbc96" d="M1192.41 1364.17c-29.12-12.8-131.55-279-131.55-279l-55.32 7.59s12.63 233.37 70.61 335.63c36.09 63.67 281 126.4 281 126.4 63.46-6.88 33.16-80.75 21.25-147.41.04-.02-156.86-30.38-185.99-43.21Z"/><path fill="#f49976" d="m1188.54 1365-36.25 27.47c-2.42 1.83 0 6 2.41 4.12l36.25-27.47c2.41-1.87.05-6.02-2.41-4.12Z"/><path fill="#00347a" d="M1360.09 1454c1.42 46.83-5.58 108.12-44.94 139.2l156.37 53.64 39-222.84c-43.53 0-120.34-17.49-157.32-21.69-.01.04 6.09 25.52 6.89 51.69Z"/><path fill="#467acd" d="m1727.54 1371.76-105-5.7s-7.22 3.47-18.86 9.42c-5.61 2.86-12.24 6.3-19.59 10.19 14.68 31.87 71.25 101.07 137 97.89 58.22-2.81 56.63-60.2 52-94.91-25.73-10.5-45.55-16.89-45.55-16.89Z"/><path fill="#c76e29" d="M1880.78 1770.94a343.16 343.16 0 0 1-203.53 11.24c-3.29-.83-4.68 4.25-1.4 5.08a348.15 348.15 0 0 0 206.33-11.26c3.16-1.15 1.82-6.24-1.4-5.06Z"/><path fill="#f04452" d="M1882.77 1531s-18.44 248.6-1.29 229.23 96.21-86.45 43.07-147.85c-43.99-50.88-41.78-81.38-41.78-81.38Z"/><path fill="#b90058" d="M1931.11 1620.9c-42.63-62.16-67.91-135.45-83.63-195.79-18.75-17.33-35-24.82-56-28.65 0 0 42.68 144.06 37.25 166.92 0 0-182 22-183.4 15.42-19.52-93.35-70.58-188.36-70.58-188.36s-40.44-3.26-71.47 33.27c18.94-7.87 96 206.62 73.49 360.57-2.28 15.66-36.46 53.49-35.28 57.51 17.33 59.09 1.59 84.86-8 116.93l-1.71 5.7c-6.18 20.53-10.43 33.78-10.43 33.78a1346 1346 0 0 0 155.52-7.18q34.34-3.57 68.32-9 32.61-5.18 64.93-12 33.12-7 65.92-15.67 25.55-6.76 50.92-14.58s-12.5-30-22.61-62.58c-6.08-19.51-11.29-39.94-12.45-55.31-3.42-45.57-1.41-37.68 11.66-65.11 23.03-48.26 70.18-73.69 27.55-135.87Z"/><path fill="#820049" d="M1902.38 1880c-24.86 15.49-51.94 23.63-80.35 29.73-31.39 6.74-63 12.88-94.94 16-59.27 5.86-121 1-174.33-27.48-2.63-1.41-5 2.59-2.33 4 87.88 46.92 191.48 30.47 284.23 9.44 24.78-5.62 48.44-14.25 70.06-27.72 2.52-1.53.2-5.54-2.34-3.97Z"/><path fill="#f9a0b7" d="M1626.47 1583.49a20.72 20.72 0 1 0 20.72 20.72 20.72 20.72 0 0 0-20.72-20.72ZM1862.28 1558.09a20.72 20.72 0 1 0 20.72 20.72 20.72 20.72 0 0 0-20.72-20.72Z"/><path fill="#b90058" d="M1526.58 1981.42s-32.19 68-23.32 166.8c13.78 153.51 378.35 141.34 471 11.44 41.36-58-52.46-230.25-52.46-230.25s-149.92 73.13-395.22 52.01Z"/><path fill="#b90058" d="M1505.4 2058.29s-47.86 155.23-64 293.38c0 0 158.49 66 322.5 86.49 26.84-83.38 28.14-221.69 24.58-302.08Z"/><path fill="#f9a0b7" d="M1444.89 2318.09s-8 44.66-7.62 61.89c0 0 113 68.49 323.45 86.91 9.82-16.5 13.54-37.1 12.39-61-152.93-24.17-262.03-47.15-328.22-87.8Z"/><path fill="#820049" d="M1642.9 1998.29c-4.43 85.29-74.88 158.59-161.4 160-3.11 0-3.12 4.89 0 4.83 89.23-1.46 161.67-76.9 166.24-164.84.16-3.1-4.68-3.1-4.84.01Z"/><path fill="#820049" d="M1500 2160.46c-12.52 59.85-23 120.38-31.49 180.95-.42 3 4.24 4.35 4.67 1.28 8.44-60.56 19-121.09 31.48-180.94.62-3.04-4.04-4.34-4.66-1.29Z"/><path fill="#b90058" d="m1709.18 2147.57 51.09 210.85 17.45 72s33.5.89 78.57-5.33c64.21-8.88 151.91-32.2 199.72-93.13l-83.43-275.84Z"/><path fill="#990058" d="m1760.27 2358.42 17.45 72s33.5.89 78.57-5.33c1.3-57.09-75.53-177.81-75.53-177.81Z"/><path fill="#820049" d="M1775.6 2237.3a765.65 765.65 0 0 1 38.22 177c.29 3.07 5.13 3.1 4.84 0a771.27 771.27 0 0 0-38.39-178.3c-1.01-2.92-5.68-1.66-4.67 1.3ZM1801.7 2008.12c-.44-3.07-5.1-1.77-4.66 1.28 3.93 27.7 6.9 55.5 9.64 83.34 1.29 13.08 3.3 26.41 2.36 39.58-.53 7.26-1.53 16.21-6.92 21.61-6.31 6.31-15.52 4.73-23.54 3.27-3-.55-4.35 4.11-1.29 4.67 10.89 2 24.1 3.23 30.92-7.48 8-12.56 6.27-30.86 5-44.88-3.21-33.87-6.73-67.71-11.51-101.39Z"/><path fill="#820049" d="M1766.29 2012c-.37-3-5.22-3.09-4.84 0 13.07 106.76 18.59 215.67 10.27 323.05-1.47 19-3.42 38-6.6 56.82-.52 3 4.14 4.35 4.66 1.28 6.15-36.37 8.38-73.45 9.58-110.27 1.78-54.43.52-109-3-163.3q-3.46-53.94-10.07-107.58ZM1982.34 2082.94c-67.13 0-121.64-52.8-128.32-118.77-.31-3.07-5.15-3.1-4.84 0 7 68.59 63.21 123.66 133.16 123.61 3.11 0 3.12-4.84 0-4.84Z"/><path fill="#f9a0b7" d="M2042.35 2286.79c-63.49 67.35-197.43 97.81-274.76 105.11-2.21-.37-10.12 37.84 5.72 61.43 0 0 209-21.15 290.38-95.39 4.02-22.52-7.69-59.78-21.34-71.15Z"/><path fill="#820049" d="M1914 1929.81a464.84 464.84 0 0 1-103.88 40.29 477.81 477.81 0 0 1-64.93 12c-71.08 8.09-143.92.43-211.7-23.34-.59 2-1.16 3.86-1.71 5.7a481.53 481.53 0 0 0 145.09 26.6 486.82 486.82 0 0 0 153.06-20.06 464.45 464.45 0 0 0 46.09-16.51c14-5.87 27.81-12.45 41.27-19.63 3.4-1.86.07-6.86-3.29-5.05Z"/><path fill="#820049" d="M1872.33 1902.48c-1.88-3.37-6.88 0-5 3.31a104.66 104.66 0 0 1 12.79 39.91c.42 3.82 6.41 3.51 6-.33a112.53 112.53 0 0 0-13.79-42.89ZM1578.84 1915.17a175.72 175.72 0 0 0-12.12 53.93c-.25 3.85 5.75 3.48 6-.33a166.27 166.27 0 0 1 11.46-50.87c1.41-3.56-3.92-6.32-5.34-2.73ZM1687.9 1932.7a133.87 133.87 0 0 0-4.65 50.44c.37 3.83 6.36 3.51 6-.34a129.71 129.71 0 0 1 4.52-48.83c1.07-3.72-4.77-4.97-5.87-1.27ZM1801.81 1930.36a12 12 0 1 0 12.64 11.32 12 12 0 0 0-12.64-11.32Z"/><path fill="#990058" d="M1903.54 1756.86s-149.09 8-166.64 16.73 87.72 0 105.26 35.09 0 96.49 0 96.49 37.4-10.69 62.17-27.89c-6.08-19.51-11.29-39.94-12.45-55.31-3.42-45.57-1.41-37.68 11.66-65.11Z"/><path fill="#ffbc96" fill-rule="evenodd" d="M1737.55 1109c-24.08-14.91-84.17-10-111.09-5.78-55 8.57-74.37 45.71-74.37 93.61 0 16 5.75 38.11 13.25 49 0 0 40.72 46.15 56.72 49l1.49 71.07s51.81 74.34 97.37 70.92c38.52-2.89 30.31-55.68 30-56.77l-5.67-57.75c24.73-12.53 31-17.22 40.38-41.41a93 93 0 0 0 6.15-34.39 132.37 132.37 0 0 0-6.31-38.76c-12.42-40.16-24.09-84.02-47.92-98.74Z"/><path fill="#f49976" fill-rule="evenodd" d="M1652.51 1312.56s35 48.46 96.8 53.25l-4.06-43.49s-51.82 6.33-92.74-9.76Z"/><path fill="#451512" fill-rule="evenodd" d="M1746.73 1163.57c-10.35 1.54-18.41 5-18 7.66s9.13 3.66 19.48 2.12 18.42-5 18-7.67-9.14-3.68-19.48-2.11ZM1691.5 1179.43c-10.07 4.57-17.27 10.41-16.09 13s10.34 1 20.39-3.52 17.27-10.38 16.08-13-10.31-1.03-20.38 3.52Z"/><path fill="#f49976" d="M1732.65 1192.64a3.14 3.14 0 0 0-6 2c3.08 9.41 7.28 17.66 11 25 4.79 9.43 8.92 17.58 7.29 22.41-.69 2-2.43 3.62-5.34 5a3.14 3.14 0 0 0 2.16 5.88 2.41 2.41 0 0 0 .53-.2c4.53-2.15 7.33-5 8.58-8.63 2.51-7.36-2-16.16-7.62-27.29-3.59-7.19-7.68-15.22-10.6-24.17ZM1683.54 1231.66a20 20 0 1 0 23.66 15.5 20 20 0 0 0-23.66-15.5ZM1780.8 1208.16a20 20 0 0 0 8.16 39.17 16.89 16.89 0 0 0 2.81-.81 131.49 131.49 0 0 0-6.31-38.76 18.57 18.57 0 0 0-4.66.4Z"/><path fill="#451512" d="M1708.18 1206.17a7.05 7.05 0 1 0 8.45 5.28 7.05 7.05 0 0 0-8.45-5.28ZM1754.73 1192.18a7.05 7.05 0 1 0 8.45 5.28 7.06 7.06 0 0 0-8.45-5.28Z"/><path d="M1698.16 1067.26c-40.16-8.45-90.78 10.11-120.57 30.82h-.06c-11.75 8.16-20.22 16.63-23.58 23.91 0 0-19.86 27.4-21.27 65.29v.46c-.23 7.65-1.44 109.83 98.93 105.78h.53a340.51 340.51 0 0 0-5.55-53c2-10.57 4.19-39.32-8.36-74.75 0 0 35.38 9.18 61.51 6.63s40.44-8.4 41.49-10.74-37.84.19-51.46-6.95c2.11.1 74.4 4.62 103.73-4.28 3.42-1.08-19.33-71.36-75.34-83.17Z"/><path fill="#2f2f2f" fill-rule="evenodd" d="m1627.54 1090.18 38.61 17.53s-46.16 11.54-69.74-.09c0 0 29.35 26.28 80.48 14.08 0 0 36-11.75 63.35-1.13 0 0-48.98-38.08-112.7-30.39Z"/><path fill="#ffbc96" fill-rule="evenodd" d="M1628.93 1249.25c-4.36-12.69-19.58-18.62-30.83-11.31-.43.29-.85.59-1.26.91-9.21 7.37-8.67 14.67-5.94 23.53 3.93 12.77 27.28 37.37 40.69 31.15 10.07-4.66 1.67-30.33-2.27-43.09-.12-.44-.25-.8-.39-1.19Z"/><path fill="#f49976" d="M1605.35 1252.48a2.48 2.48 0 0 0-2.51 2.49 2.54 2.54 0 0 0 2.46 2.56c7.57.12 14.36 4.58 19.12 12.53a2.49 2.49 0 0 0 2.85 1.13 2.4 2.4 0 0 0 .56-.26 2.5 2.5 0 0 0 .81-3.47c-5.64-9.52-13.96-14.83-23.29-14.98Z"/><path fill="#f49976" d="M1615 1256.67c-5.49 5-7.87 11.38-6.7 17.81a2.54 2.54 0 0 0 2.9 2.06l.32-.07a2.49 2.49 0 0 0 1.65-2.85c-.83-4.67 1-9.33 5.2-13.18a2.56 2.56 0 0 0 .12-3.58 2.44 2.44 0 0 0-3.49-.19Z"/><path fill="#192039" d="m1756.42 1265-35 1a4.1 4.1 0 0 0-3.94 4.86c1.3 6.24 5.94 16.48 22.42 16.84 14.24.32 19.07-10.77 20.7-17.6a4.13 4.13 0 0 0-4.18-5.1Z"/><path fill="#fff" d="M1725.05 1270.19a11.75 11.75 0 0 0 5.47 1.29c3 .19 6 0 9-.12.81-.14 1.62-.28 2.42-.44a58.82 58.82 0 0 1 6.87-.72 6.37 6.37 0 0 0 6.14-5.15l-31.8.89c.05 1.73.36 3.29 1.9 4.25Z"/><path fill="#df3243" d="M1721.69 1280c3.27 4 8.81 7.44 18.18 7.65 7.34.16 12.16-2.72 15.35-6.48a24.48 24.48 0 0 0-12.55-4.56 51.53 51.53 0 0 0-20.98 3.39Z"/><path fill="#fff" fill-rule="evenodd" d="M1622.36 1284.41a7.15 7.15 0 1 0 7.15 7.15 7.16 7.16 0 0 0-7.15-7.15Z"/><path fill="#ffb600" d="M1736.13 1050.06h.11l-233.38-232.4 39.6 326.93h.11a3.3 3.3 0 0 0 .25.81c4.36 8.93 51.28-5 104.79-31.12s93.36-54.53 89-63.47a3.23 3.23 0 0 0-.48-.75Z"/><path fill="#f3dc67" d="m1534.82 1081.54 7.64 63h.11a3.3 3.3 0 0 0 .25.81c4.36 8.93 51.28-5 104.79-31.12 35.68-17.41 65.26-35.84 79.74-48.84-25.84 13.34-53.11 23.64-81.64 28.67-38.71 6.83-76.54 2.42-110.89-12.52ZM1507 851.87a110.77 110.77 0 0 0 50.25 19.94l-54.39-54.15ZM1510.38 879.74l3 25.23c24.7 20.85 90.14 28.41 103 25.76L1591.57 906a151.14 151.14 0 0 1-81.19-26.26ZM1597.21 972.66c-29.45-2.58-56.09-13.43-79.25-30.27l7 57.48c46.34 35.64 113.78 31.57 168.18 7.19l-39.64-39.46c-18.41 4.63-37.33 6.72-56.29 5.06Z"/><path fill="#f3dc67" d="m1529.44 1037.1 2.71 22.4c78.56 34.58 168.82-1.86 196.34-17.21l-13-13c-55.62 26.29-135.15 39.78-186.05 7.81Z"/><path fill="#fff" d="m1548.86 1130.21 13.92-.31-31.41-157.65 17.49 157.96z"/><path fill="#f3754f" d="M1499.89 755.19c-24.64 25.06 2.49 62.39 2.49 62.39-3.11-24.51 14-54.93 14-54.93Z"/><path fill="#f3754f" d="M1502.38 817.58c16.22-18.64 50.31-26.11 50.31-26.11l-5.41-17.28c-35.11-1.7-44.9 43.39-44.9 43.39ZM1472.19 769.82l-16.77 6.87c1.28 35.12 47 41.06 47 41.06-19.9-14.59-30.23-47.93-30.23-47.93Z"/><path fill="#f3754f" d="m1446.71 810.86-4.71 17.48c28.65 20.34 61.2-12.37 61.2-12.37-23.74 6.96-56.49-5.11-56.49-5.11Z"/><path fill="#ffbc96" d="M973.08 1006.78c-21 4.46-13.12 100.83 6.38 110.64 18.83 9.47 63.33 6.34 74.84 3.11s17.47-71.63 8.78-80.31-68.97-37.9-90-33.44Z"/><path fill="#fff7f7" d="M945.17 715.35c-8.5 60.34-7.25 132.55 3.34 184.83 11.22 55.46 32.56 86.28 53.59 77.43 8.63-3.56 17.29-13.54 24.42-31.21 11-27 17.56-70.07 19.79-113.2 1.93-36.59 1-73.49-1.21-109.09-33.27-2.96-66.62-5.8-99.93-8.76Z"/><path fill="#b1e6f8" d="M1023.15 1125.84c-20.76 1.22-12.27-7.75-29.39-19.58-2.7-36.49 2.43-86.86 13.18-121.61a116 116 0 0 1-35-1.46c12.36 33.24 15 85.71 7.08 120.31-15.52 10.72-11.37 17.34-30.19 17.4-10.64-.39-1.95 10.74 6.28 10.93l63.61 3.07c6.63.15 10.1-8.43 4.43-9.06Z"/><path fill="#b1e6f8" d="M1045.1 724.11c2.18 35.6 3.14 72.5 1.21 109.09-2.23 43.13-8.84 86.16-19.79 113.2-7.13 17.67-15.79 27.65-24.42 31.21-21 8.85-42.37-22-53.59-77.43-10.59-52.28-11.84-124.49-3.34-184.83-1.56 0-3.08-.19-4.63-.35-7.7 48.47-8.63 112.25-3.16 161s17.48 88 32.34 106.65a37.25 37.25 0 0 0 10.15 9.09 19.67 19.67 0 0 0 18.3 1.52c13.64-5.14 27.08-24.24 37.49-55.29 17.88-53.32 19.79-141.47 13.67-213.55-1.41-.12-2.82-.15-4.23-.31Z"/><path fill="#a02a4c" d="M942.24 825.82c3 52.39 12.44 99.91 26.41 125.85s32.38 28.71 47.61 3.87 26.49-77.79 26.94-131.8c-33.65 10.33-67.61 9.26-100.96 2.08Z"/><path fill="#b1e6f8" d="M1020 733.2c-.78-.26-.75.21-1.54-.05-1.43 83.2-11.32 166.52-27.74 233.77 15.3.36 31.33-26.15 40.38-69.31s12.48-120.14 8.84-164Z"/><path fill="#d72a4c" d="M990.72 966.92c15.3.36 31.33-26.15 40.38-69.31 4.09-19.49 7-45.86 8.68-73A172.66 172.66 0 0 1 1013 830c-4.76 49.13-12.29 96-22.28 136.92Z"/><path fill="#ffbc96" d="M1005.38 1045.42c1.26-.11 18.9-1.4 16.66-13.09-2.35-12.11-23.83-14.88-23.83-14.88s14.54-1.58 8.6-11c-12.73-20.23-71.82-10.43-75.57 4.23-1.87 7.27 5.3 14.3 5.3 14.3s-7.57 4.33-7.14 11.31c.51 8.74 9.45 11.91 9.45 11.91s-7.48 5.41-6.89 10.41c1.19 9.75 12.5 13.25 12.5 13.25s-7.82 4.79-4.59 13.86c6.11 17.2 32.24 23.3 32.24 23.3-.06-.69.85-14.37.85-14.37 12.46-5.23 47.33 10.77 49.57-5.77 1.3-9.63-12.15-16.25-13.17-16.74 1.15.12 19.08 1.86 17.94-11-1.11-12.51-20.79-15.56-21.92-15.72Z"/><path fill="#f49976" d="M999 1017.29c-19.89-4.52-42.81-1.48-61.46 6.49a.16.16 0 0 0 .11.29c20.87-5.21 39.91-6.27 61.3-5.54.73.03.69-1.1.05-1.24ZM1005.93 1044.76c-22.31-7.9-48.23-5.19-67.49 2.92-.23.09-.13.47.1.41 18.76-4.79 52.43-6.42 67.67-2.29.9.25.49-.8-.28-1.04ZM1011 1072.43a59.84 59.84 0 0 0-29.91-7.52c-11.27-.06-25.64 1.09-35.92 6-.23.11-.18.52.1.47 22.13-4.11 43.8-5 65.49 1.76.43.19.56-.51.24-.71ZM1009.36 1046.52a19.3 19.3 0 0 0 5.57-1.39 47.89 47.89 0 0 0-5.21-1.83Z"/><path fill="#f49976" d="M1009.07 1073.89a34.17 34.17 0 0 0 7 .27 39.47 39.47 0 0 0-5.94-3.7Z"/><path fill="#f49976" d="M1021.84 1048.9a38.1 38.1 0 0 0-6.91-3.77 19.3 19.3 0 0 1-5.57 1.39l.36-3.22a47.89 47.89 0 0 1 5.21 1.83 14.23 14.23 0 0 0 6.3-5 13.34 13.34 0 0 0 2.19-6.5 9.65 9.65 0 0 0-2-6.57c-2.85-3.62-7-5.4-10.89-6.86a56.16 56.16 0 0 0-12.28-2.8 68.33 68.33 0 0 1 11.88 3.83c3.73 1.67 7.46 3.84 9.66 7a7.53 7.53 0 0 1 1.39 5.21 10.85 10.85 0 0 1-2 5.15c-2.19 3-6.21 4.39-9.84 4.61l-9.14.55 8.78 2.66a37.44 37.44 0 0 1 10.93 5.26c3.22 2.32 5.82 5.49 6.14 9.07.4 3.74-1.31 7-4.77 8.37s-7.69 1.62-11.54 1.15l-10.77-1.3 9.71 4.73a35.36 35.36 0 0 1 7.51 4.92c2.22 1.95 4.14 4.29 4.79 6.86a6.9 6.9 0 0 1-2 7c-2 1.67-5.14 2.27-8.14 2.55-6.14.49-12.47-.34-18.79-.84-3.16-.27-6.33-.56-9.53-.69s-6.49-.18-9.45 1.09c3.06-.95 6.27-.48 9.39-.21s6.26.89 9.39 1.41a102.83 102.83 0 0 0 19.15 1.85c3.24-.19 6.75-.51 9.86-2.74a9.8 9.8 0 0 0 3.38-10.18c-.9-3.65-3.26-6.42-5.72-8.67-.76-.68-1.54-1.31-2.34-1.91a34.17 34.17 0 0 1-7-.27l1.06-3.43a39.47 39.47 0 0 1 5.94 3.7 22.17 22.17 0 0 0 6.64-1.49 11.09 11.09 0 0 0 5.63-5 12.54 12.54 0 0 0 1.27-7.31c-.72-5.02-4.24-8.9-7.88-11.43Z"/><path fill="#ffbc96" d="M984.94 998.64c-4.66 10.58-11.18 59.6-1.36 61.1 12.68 1.93 19.22-18 21.34-31.2 0 0 16.31 26 37.81 20.06 13.49-3.74 20.86-8.18 20.86-8.18s-62.96-77.42-78.65-41.78Z"/><path fill="#f49976" d="M1019.42 1042.43a48.62 48.62 0 0 1-7.29-6.76 52.74 52.74 0 0 1-5.86-7.94l-2.06-3.5-.86 4.06a99.86 99.86 0 0 1-3.28 12.9 40.44 40.44 0 0 1-5.66 11.59c-2.46 3.26-6.09 6-9.54 5.44-3.07-.23-4-5.1-4.38-9.33a129 129 0 0 1-.19-13.36c.09-4.5.25-9 .64-13.47.93-8.89 1.83-18 5.49-26.3-2.48 3.83-3.88 8.25-5.14 12.62a100.16 100.16 0 0 0-2.71 13.41 156.72 156.72 0 0 0-1.67 27.37 26.07 26.07 0 0 0 1.23 7.16 9.67 9.67 0 0 0 2.13 3.57 7.13 7.13 0 0 0 1.82 1.39 6.94 6.94 0 0 0 2.17.67 11.44 11.44 0 0 0 7.78-1.74 21.39 21.39 0 0 0 5.39-5.16 41.56 41.56 0 0 0 6.06-12.75 78.87 78.87 0 0 0 2.35-9.83c-.78-1-1.55-2-2.28-3.11l2.92-.56c-.2 1.23-.41 2.45-.64 3.67a59.31 59.31 0 0 0 4.41 5 50.47 50.47 0 0 0 8 6.63 35.22 35.22 0 0 0 9.42 4.36 26.76 26.76 0 0 0 10.2 1 30 30 0 0 1-9.84-2 36.44 36.44 0 0 1-8.61-5.03Z"/><path fill="#f49976" d="M1003.56 1029.36c.73 1.09 1.5 2.11 2.28 3.11.23-1.22.44-2.44.64-3.67Z"/><path fill="#ffbc96" fill-rule="evenodd" d="M2341.1 1545.62c-92.94 1.62-93.78 62.55-97.35 119.71-.38 6.21-.77 12.12-1.07 17.74a324.23 324.23 0 0 0-.49 35.08c1.37 23.17 7.44 40.47 24.79 55.8 6.59 5.83 10.14 7.92 16.46 12.44l.85 13-1.57 39.75s31 14.5 46.47 14.61c23 .15 45.85-10.9 63.95-19.36l-1.23-69.69 23.8-18.86c2.28-5.95 41.95-35.83 44.07-93.28-1-29.39-12.71-47.13-29.71-67-19.22-22.43-46.7-40.68-88.97-39.94Z"/><path fill="#f49976" d="m2283.43 1786.39-.44 41.38c70.08 14.72 91.68-55.37 91.68-55.37s-36.31 30.27-91.24 13.99Z"/><path fill="#ffbc96" fill-rule="evenodd" d="M2461.41 1664.88c-5.79-2.44-26-2.46-38.32-6.43a243.55 243.55 0 0 0-3.22 26c-1 14.72 2.49 45.69 15.86 48.09 17.74 3.21 38.46-29.24 39.5-44 .69-10.15-.76-18.13-13.82-23.66Z"/><path fill="#f49976" d="M2451.11 1674.66c-14.21 3.33-24.91 13.41-30.09 28.38a3.59 3.59 0 0 0 2.53 4.53 6.19 6.19 0 0 0 1 .15 3.94 3.94 0 0 0 4-2.48c4.34-12.53 13.06-20.94 24.57-23.6a3.61 3.61 0 0 0 2.82-4.39 4 4 0 0 0-4.83-2.59Z"/><path fill="#f49976" d="M2438 1683.65a4 4 0 0 0-5.29 1.42 3.47 3.47 0 0 0 1.53 4.88c7.81 3.9 12.32 9.73 12.74 16.42a3.77 3.77 0 0 0 3.64 3.38h.48a3.72 3.72 0 0 0 3.68-3.81c-.58-9.24-6.55-17.15-16.78-22.29ZM2304.84 1643.36a3.9 3.9 0 0 0-4.36 3.11c-1.43 10.69-4.45 20.57-7.18 29.31-4.22 13.71-7.58 24.56-2.8 32.28 2.37 3.79 6.5 6.35 12.52 7.82.22 0 .45.08.65.09a3.89 3.89 0 0 0 4.07-2.69 3.58 3.58 0 0 0-2.82-4.37c-3.87-.91-6.38-2.4-7.68-4.42-3.14-5.07 0-15.13 3.57-26.73 2.77-9 5.92-19.16 7.44-30.39a3.67 3.67 0 0 0-3.41-4.01Z"/><path fill="#451512" fill-rule="evenodd" d="M2261.83 1621c-13 1-23.6 6.11-23.33 9.24s10 .65 22.92-.34 29.71-.57 29.41-3.66-15.95-6.16-29-5.24ZM2354.64 1622.59c-22.24-.26-28.53 3.36-28.58 7 0 3.12 16.56 1.77 29.59 1.92s30.55 3.26 30.61.19-18.56-8.93-31.62-9.11Z"/><path fill="#192039" d="m2329.21 1735.67-47.69-.6c-3.43 0-6.19 2.74-5.63 5.87 1.4 7.88 7.13 20.94 29.52 22.26 19.34 1.14 26.55-12.49 29.15-21 1.01-3.2-1.66-6.48-5.35-6.53Z"/><path fill="#fff" d="M2286.25 1740.51c2.09 1.32 4.92 1.66 7.37 1.9 4.08.4 8.19.3 12.3.33l3.32-.42a86.32 86.32 0 0 1 9.38-.55c4.43-.1 7.53-2.41 8.64-6.12l-43.29-.55c-.08 2.16.25 4.13 2.28 5.41Z"/><path fill="#df3243" d="M2281.12 1752.67c4.23 5.23 11.56 9.77 24.29 10.53 10 .58 16.69-2.78 21.24-7.31a34.83 34.83 0 0 0-16.8-6.37c-9.62-1.02-19.47.48-28.73 3.15Z"/><path fill="#f49976" d="M2369.81 1684.22c-10.77-.54-20 7-20.59 17s7.66 18.4 18.43 19 20-7.05 20.58-17-7.65-18.45-18.42-19ZM2247.72 1682.71a19.64 19.64 0 0 0-5 .36 326.58 326.58 0 0 0-.48 35.08 19.41 19.41 0 0 0 3.37.46c10.77.55 20-7 20.6-17s-7.72-18.35-18.49-18.9Z"/><path fill="#451512" d="M2342.31 1661c-5.18-.16-9.52 3.57-9.7 8.34s3.88 8.76 9.06 8.92 9.52-3.57 9.69-8.34-3.88-8.73-9.05-8.92ZM2265.18 1657.09c-5.17-.16-9.51 3.58-9.69 8.34s3.88 8.76 9.06 8.93 9.51-3.58 9.69-8.34-3.88-8.76-9.06-8.93Z"/><path fill="#3f0727" d="M2458.78 1537.64a72.91 72.91 0 0 0-10.89-2.12s-.29-18-13.78-27.28c-34.45-23.56-91.38-20.81-124-14.62-5.49.89-10.61 2-15.31 3.19a104.19 104.19 0 0 0-14.74 4.89c-22.95 10-43.59 27.55-52 45.76l12.63.64s-27.11 26.4-15.3 43.63c2.31 3.37 19.62 7.29 39.81 8.88 80 6.39 148.94-16 148.94-16s-7.82 32.88-6.73 43c1.64 15.66 13.86 54 13.86 54 5.42-4.74 11-9.57 15.86-13.69 7.75-6.62 20-6.87 28.15-.65 3.24-6.52 6.09-12.73 8.59-18.7 30.95-27.43 15.49-79.13-1.35-98.86-3.98-4.6-7.82-10.4-13.74-12.07Z"/><path fill="#3f0727" d="M2489.06 1569.51a50.17 50.17 0 0 0-24.15-17.66c7.09-14.13 3.07-32.31-9.46-42.78a46.83 46.83 0 0 1-.77 23.65c-2.28-12.15-11.34-22.35-21.81-30-22.42-16.5-52.08-23.46-80.77-22.11s-56.44 10.49-81.58 23.3a135.88 135.88 0 0 0-22.5 13.86c-13.11 10.34-22.95 24.34-27 39.81a48.4 48.4 0 0 0-1.25 16.09 80.31 80.31 0 0 0 10.32 33c0-.2 41-23.09 63.66-31.3a63.84 63.84 0 0 0-6.65 16.17c.54-2.08 15.67-5.22 18-5.86a194.87 194.87 0 0 1 19.57-4.11c23.51-3.75 47.61-3.53 71.28-1.5 2.48.23 5.63.84 8.91 1.26-3.45 17.3-2.54 67.51 10.37 80.48a74.82 74.82 0 0 0 3 30.49c23.61-44.16 50.36-23.33 50.36-23.33 5.89-12 3-12.79 11.32-20.52a72.09 72.09 0 0 1 15.59-10.84c-3.19-17.28-14.69-56.7-27.33-69.78a46.35 46.35 0 0 1 20.89 1.68Z"/><path fill="#55062c" d="M2468.22 1567.77a46.35 46.35 0 0 1 20.84 1.74 50.17 50.17 0 0 0-24.15-17.66c7.09-14.13 3.07-32.31-9.46-42.78a46.83 46.83 0 0 1-.77 23.65c-2.28-12.15-11.34-22.35-21.81-30-22.42-16.5-52.08-23.46-80.77-22.11s-56.44 10.49-81.58 23.3a135.88 135.88 0 0 0-22.5 13.86c-.66.5-1.31 1-1.93 1.58-12.14 10.17-21.23 23.52-25.06 38.23a48.4 48.4 0 0 0-1.25 16.09 165.73 165.73 0 0 1 38.19-22.31c21.55-9.22 44.66-14.94 67.73-20.3-5.3 7.06-10.56 14.15-15.87 21.22a157.56 157.56 0 0 1 76.22-4.26l-19 17.07a314.89 314.89 0 0 1 71.55-3q-4.25 19.62-8.52 39.26 8.43-4 16.78-8a207.79 207.79 0 0 0 14.11 50.57c3.5-6.79 7-13.55 10.54-20.33a92.1 92.1 0 0 0 8.48 24.81 72.09 72.09 0 0 1 15.59-10.84c-2.27-12.37-8.82-36-17-53.31-3.26-6.9-6.77-12.76-10.36-16.48Z"/><path fill="#6f0a32" d="M2489.06 1569.51a50.17 50.17 0 0 0-24.15-17.66c7.09-14.13 3.07-32.31-9.46-42.78a46.83 46.83 0 0 1-.77 23.65c-2.28-12.15-11.34-22.35-21.81-30-22.42-16.5-52.08-23.46-80.77-22.11s-56.44 10.49-81.58 23.3a135.88 135.88 0 0 0-22.5 13.86c-.66.5-1.31 1-1.93 1.58a216 216 0 0 1 53.63-13.76q-3.42 5.63-6.77 11.2a145.23 145.23 0 0 1 65.61-26.67l-19.23 14c20.2-8.23 44.06-9.77 64.33-1.8s36.13 26.16 37.61 46.43c3.18-2.4 6.32-4.82 9.5-7.21a32.35 32.35 0 0 1-3.76 16.87l14 2.46c-2.85 2.17-5.7 4.38-8.58 6.55a293.68 293.68 0 0 1 26.14 16.88c-3.26-6.89-6.77-12.75-10.36-16.47a46.35 46.35 0 0 1 20.85 1.68Z"/><path fill="#313547" d="m2504.59 2272.73-216.8.73-114.38.39q.38 13.21.73 25.57c3.32 111.41 6.34 174.22 12.61 288.5.65 11.72 1.33 24 2.05 36.9h125.72c.64-12.14 1.32-24.58 2-36.9 3.43-62.34 6.95-121.34 6.95-121.34s6.79 39 15.83 121.34q1.88 17.19 3.88 36.9h217.63q.32-19 .12-36.9c-2.31-212.7-56.34-315.19-56.34-315.19Z"/><path fill="#2a2e3d" d="M2374 2444.08c-1.25-.58-73.31-10.38-73.31-10.38l-12.93-160.24-113.65 26-4.58 1c-15.61 107.61-29.45 166.12-29.3 287.45 0 11.68.15 23.95.44 36.9h189.69c.92-15 .23-94.85.23-94.85s10.61 77.67 12.46 94.85h25.54c-1.76-12.09-3.57-24.54-5.38-36.9-9.49-65.14-18.78-128.27-18.78-128.27s36.5-12.37 29.57-15.56Z"/><path fill="#ffb600" d="M2543.37 2008.73c1.26-71.25 1.08-122-1.34-124-8.32-7-139.3-45.34-139.3-45.34-41.72 2.57-66.82-2.19-124.38 3.63l-117.24 52.43s5.17 222 5.61 235.39c4.47 132.68-12.4 248.64-12.4 248.64 41.4 15.41 95.19 26 154.24 29.74 67.2 4.21 169.4 3.59 239.71-13.32 8.5-7.41-7.99-212.59-4.9-387.17Z"/><path fill="#ffbc96" d="M2639.19 1721.69c-10.91 15.25-18.64 25.64-20.78 27.6-1.48 1.35-3.53 3.16-6 5.34-36.37 31.37-172.69 141.08-172.69 141.08l79.86 85.57s90.34-77.88 131.78-119.81c8.17-8.28 14.45-15.16 17.74-19.76 4.47-6.23 14.8-23.39 28.13-46.27 46.4-79.61 129.32-228.61 129.32-228.61l-56.56-33.93s-88.92 130.24-130.8 188.79Z"/><path fill="#f49976" d="M2618.41 1749.29c-1.48 1.35-3.53 3.16-6 5.34-2 44-4.35 115.45 1.72 115.45 3.84 0 19.43-3.36 37.23-8.61 8.17-8.28 14.45-15.16 17.74-19.76 4.47-6.23 14.8-23.39 28.13-46.27-16.15-24.76-41.48-54.87-58-73.75-10.95 15.25-18.68 25.64-20.82 27.6Z"/><path fill="#ffbc96" d="M2122.58 1746.08a66.28 66.28 0 0 1-4.11-7.58c-20.74-41.87-103.57-233.65-103.57-233.65l-61.43 28.84s70.58 239 84.92 270.22a117.31 117.31 0 0 0 6.83 12.07c7.59 12.17 19.83 29.66 33.82 49 40.78 56.2 96.55 127.7 96.55 127.7l86.18-68.4s-55.21-70.06-96.67-123.13c-19.85-25.48-36.56-47.01-42.52-55.07Z"/><path fill="#f49976" d="M2118.47 1738.5h-4.38l-68.87 77.5 33.82 49c17.57-7 43.51-20.86 61.37-38.71 9.52-9.52 17.89-17.9 24.69-25.12-19.85-25.43-36.56-47-42.52-55a66.28 66.28 0 0 1-4.11-7.67Z"/><path fill="#ffb600" d="M2594.17 1727.45s-71.06 74.5-121.05 121.81c-15.13 14.3-28.37 26.09-37.09 32.62-3.85 2.91-6.81 4.69-8.7 5.25-20 5.69-87.43 2.35-87.43 2.35s-64.49-3.57-78.63-10.72c-8.75-4.42-17.41-10.17-22.34-17.26-2.84-4.08-8-11.51-14.51-20.67-22.85-32.45-61.06-86.3-61.06-86.3l-61.3 48.64-69.9 55.47 131.2 185.36 380.87-32.79 156.9-166.89-30.69-33.55Z"/><path fill="#ff7519" d="m2497 1977.68 47.28 33.56 156.9-166.89-30.69-33.55c-49.77 64.83-173.49 166.88-173.49 166.88ZM2032.15 1858.64 2163.36 2044l24.63-85.41s-70-89.48-85.93-155.45Z"/><path fill="#ffbc96" d="M2885.3 1490.1c-12.48 3.27-20.56 3.22-20.56 3.22s52.07-57 38.49-67.77-38.6 22.88-47.5 34.21c-8.62 11-13.14 15.7-13.42 16 .51-1.14 36-71.91 23.68-80 0 0-8.63-3.21-15.44 8.09-13.15 21.86-17.94 33.24-29.18 61.21.35-.91 9.89-44.94 18.14-69.17 1.94-5.67-2.43-11.78-8.4-11.25a8.7 8.7 0 0 0-5 2.26c-6.87 6-26.16 66.79-26.16 66.79l-12.46 19s-1.27-31.28-10.7-36-17.05 7.53-14.1 23.29-3.46 42.4 3.72 52.83 3.06 20.13 3.06 20.13l55.33 37.45s12.52-5.88 25.59-20.22 16.25-23.68 26.5-30.32 60-24.09 52-35.53-31.12 2.5-43.59 5.78Z"/><path fill="#f49976" d="M2792.23 1475.75a111.41 111.41 0 0 1 21.26 31.32c.15.34.46 1.4.45 1-.26-27.79-21.71-32.32-21.71-32.32Z"/><path fill="#ffbc96" d="M2014.7 1410.33c-9.71 4.13-13 35.27-13 35.27l-11.19-19.79s-15.3-61.92-21.77-68.35a8.68 8.68 0 0 0-4.87-2.58c-5.93-.91-10.68 4.9-9.12 10.68 6.66 24.71 13.32 69.26 13.61 70.2-9.4-28.64-13.44-40.31-25.15-63-6-11.72-14.84-9.09-14.88-9.07-12.79 7.24 18 80.16 18.45 81.33-.26-.31-4.47-5.31-12.36-16.83-8.14-11.88-30.91-47.12-45.18-37.23s34 70.13 34 70.13-8.07-.47-20.31-4.55-34.43-19.47-43.15-8.58 39.83 31.54 49.63 38.83 12.36 16.84 24.48 32 24.22 21.84 24.22 21.84l57.64-33.78s-3.48-9.95 4.37-19.89 3.16-36.94 7.14-52.48-2.83-28.27-12.56-24.15Z"/><path fill="#f49976" d="M1973 1479.15c0 .38.35-.66.52-1a111.29 111.29 0 0 1 23.25-29.88s-21.77 3.15-23.77 30.88Z"/><path fill="#ff7519" d="M2543.37 2008.73c-17-15-46.42-31-46.42-31s-46 95.22-28.74 181.8 16.26 168.42-22.14 200.79c-30 25.26-106.67 41.81-137.51 48.94 67.2 4.21 169.4 3.59 239.71-13.32 8.5-7.45-7.99-212.63-4.9-387.21ZM2278.35 1843l-33.35 14.92c3.78 13.14 17.68 42.71 66.83 44.5 60.56 2.21 106.26-35.69 120.93-54.12-17.51-5.26-30-8.92-30-8.92-41.76 2.62-66.85-2.19-124.41 3.62Z"/><path fill="#ffb600" d="M2326.73 1840.13c-3.73 4.62 0 48.45 0 48.45 58.29-1.15 90.53-45 90.53-45l-14.26-39.8s-72.55 31.74-76.27 36.35ZM2270.91 1815.91l-16.12 35.75s11.15 33.46 43.4 36.92c0 0 2.48-41.54 0-47.3s-27.28-25.37-27.28-25.37Z"/><path fill="#fff" d="M2307.07 1940.25a8.78 8.78 0 1 0 8.77 8.77 8.77 8.77 0 0 0-8.77-8.77ZM2307.07 1984.11a8.78 8.78 0 1 0 8.77 8.77 8.77 8.77 0 0 0-8.77-8.77Z"/><path fill="#d72a4c" d="M2320.1 1488.81a2.94 2.94 0 0 0-.42.64c-3.67 8.13 32.84 32.58 81.55 54.6s91.19 33.28 94.87 25.14a2.93 2.93 0 0 0 .21-.73h.1l26.87-294.44L2320 1488.76Z"/><path fill="#00347a" d="M2523.28 1274.06c15.16-16.19 46-21.79 46-21.79l-4.3-15.68c-31.45-2.67-41.7 37.47-41.7 37.47Z"/><path fill="#00347a" d="M2523.28 1274.06c22.17.53 46.88 19.81 46.88 19.81l8.84-13.64c-18.95-25.23-55.72-6.17-55.72-6.17ZM2524.64 1218.17c-23.55 21-1.43 56-1.43 56-1.35-22.14 15.78-48.39 15.78-48.39Z"/><path fill="#00347a" d="m2496 1231.73-14.8 6.74c2.36 31.46 43.61 35.21 43.61 35.21-18.36-12.39-28.81-41.95-28.81-41.95Z"/><path fill="#ff8a84" d="M2447.91 1427.54a10.69 10.69 0 1 0-14.15 5.33 10.7 10.7 0 0 0 14.15-5.33ZM2420.16 1456.85a10.69 10.69 0 1 0 5.34 14.14 10.69 10.69 0 0 0-5.34-14.14Z"/><circle cx="2374.36" cy="1467.48" r="17.37" fill="#ff8a84" transform="rotate(-62.57 2374.322 1467.478)"/><path fill="#ff8a84" d="M2451.15 1390.66a10.69 10.69 0 1 0-5.33-14.14 10.7 10.7 0 0 0 5.33 14.14ZM2405.53 1499.07a10.69 10.69 0 1 0 5.34 14.14 10.69 10.69 0 0 0-5.34-14.14ZM2453.65 1527.85A10.69 10.69 0 1 0 2459 1542a10.69 10.69 0 0 0-5.35-14.15ZM2494.17 1476.65a10.69 10.69 0 1 0 5.34 14.14 10.69 10.69 0 0 0-5.34-14.14ZM2505.05 1317.34a10.69 10.69 0 1 0 5.34 14.14 10.69 10.69 0 0 0-5.34-14.14ZM2493.26 1394.34a17.37 17.37 0 1 0 8.67 23 17.36 17.36 0 0 0-8.67-23ZM2470.85 1437.79a17.37 17.37 0 1 0 8.67 23 17.37 17.37 0 0 0-8.67-23ZM2456.22 1480a17.37 17.37 0 1 0 8.67 23 17.36 17.36 0 0 0-8.67-23ZM2481.36 1517.47a17.35 17.35 0 0 0 17.48 24.43l3.1-34a17.36 17.36 0 0 0-20.58 9.57Z"/><path fill="#ff8a84" d="M2453.65 1527.85A10.69 10.69 0 1 0 2459 1542a10.69 10.69 0 0 0-5.35-14.15ZM2489 1560.28a10.67 10.67 0 0 0-14.14 5.33 10.43 10.43 0 0 0-.93 4.33c11.06 2.36 18.7 2.58 21.35.25a10.66 10.66 0 0 0-6.28-9.91ZM2456.22 1480a17.37 17.37 0 1 0 8.67 23 17.36 17.36 0 0 0-8.67-23ZM2405.53 1499.07a10.69 10.69 0 1 0 5.34 14.14 10.69 10.69 0 0 0-5.34-14.14ZM2419.44 1532.67a17.37 17.37 0 0 0-23 8.67c-.06.15-.11.3-.17.44q2.45 1.14 4.94 2.27c9.3 4.2 18.36 8 27 11.37a17.36 17.36 0 0 0-8.77-22.75ZM2363.86 1494.44a17.33 17.33 0 0 0-24.5 16.11c6.95 4.74 15.46 9.9 25.15 15.23a17.37 17.37 0 0 0-.65-31.34ZM2470.85 1437.79a17.37 17.37 0 1 0 8.67 23 17.37 17.37 0 0 0-8.67-23ZM2420.16 1456.85a10.69 10.69 0 1 0 5.34 14.14 10.69 10.69 0 0 0-5.34-14.14Z"/><circle cx="2374.36" cy="1467.48" r="17.37" fill="#ff8a84" transform="rotate(-62.57 2374.322 1467.478)"/><path fill="#ff8a84" d="M2320 1488.76h.11l-.11.16a10.67 10.67 0 0 0 14.49-15.51ZM2403.28 1407.25a17.24 17.24 0 0 0-4.8-1.38l-19.4 20.49a17.36 17.36 0 1 0 24.2-19.11ZM2493.26 1394.34a17.37 17.37 0 1 0 8.67 23 17.36 17.36 0 0 0-8.67-23ZM2442.57 1413.39a10.69 10.69 0 1 0 5.34 14.15 10.69 10.69 0 0 0-5.34-14.15ZM2494.17 1476.65a10.69 10.69 0 1 0 5.34 14.14 10.69 10.69 0 0 0-5.34-14.14ZM2494.31 1442.07a10.63 10.63 0 0 0 12.29 14.73l1.83-20.07a10.68 10.68 0 0 0-14.12 5.34ZM2487.67 1360.8a17.35 17.35 0 0 0 25.74 21.39l2.41-26.45a17.31 17.31 0 0 0-28.15 5.06ZM2460 1371.18a10.69 10.69 0 1 0 5.34 14.15 10.69 10.69 0 0 0-5.34-14.15ZM2404.79 1399.2a17.35 17.35 0 0 0 23.72-25ZM2473.5 1326.63l-23.19 24.5a17.36 17.36 0 1 0 23.19-24.5ZM2505.05 1317.34a10.69 10.69 0 1 0 5.34 14.14 10.69 10.69 0 0 0-5.34-14.14ZM2491.81 1307.3a16.92 16.92 0 0 0 2.14 1.17 17.36 17.36 0 0 0 21.28-25.91Z"/><path fill="#fff" d="m2341.8 1494.39 90.96-112.04-99.16 102.6 8.2 9.44z"/><path fill="#7791d5" d="M1153.93 2370c214.14 176.82 99.86 199.8-76.76 302.78 267.39-62.17 495.53 138.71 755.59 74.33l76.76-302.79c-260.06 64.38-488.2-136.5-755.59-74.32Z"/><path fill="#4c60aa" d="m1644.51 2318.79-158.34 244.29c116.83 115.11 210.19 116.83 346.59 184 30.65-97.62 45.74-97.22 76.76-199-101.04-53.6-177.67-143.25-265.01-229.29Z"/><path fill="#7791d5" d="M3522.41 2579.1c-51.75-38.18-64.29-76.44-3.37-144.89q6-6.67 12.86-13.76c16.61-17.05 37.41-35.89 62.84-56.89-14.4-3.35-28.69-5.93-42.88-7.83q-4-.55-8-1c-245.87-28.73-461.32 143.41-704.75 83.15l76.76 302.79c211.28 52.3 401.48-70.46 608.77-85 2.72-.18 5.44-.36 8.15-.51 45.26-2.56 91.36.21 138.68 11.22-55.41-32.31-104.68-56.74-139.6-80.52q-4.87-3.4-9.46-6.76Z"/><path fill="#4c60aa" d="M2839.15 2541.63c31 101.81 46.11 101.42 76.76 199 136.4-67.2 229.76-68.91 346.59-184l-158.34-244.29c-87.34 86.04-163.97 175.66-265.01 229.29Z"/><path fill="#8ba5f3" d="M2370.19 2469.2c-252.5 0-503.44-52-725.68-150.41l-159.67 243.1c271.13 120.05 577.29 183.51 885.35 183.51 313 0 623.38-65.37 897.71-189L3106 2314.26c-224.86 101.36-479.3 154.94-735.81 154.94Z"/><path fill="#fff" d="m1807.07 2486.94 8.36 2.11-11.11 43.94-28.21-7.13 11.11-43.94 8.22 2.08.69-2.7-44.23-11.18-.68 2.7 8.37 2.11-23.73 93.83-8.37-2.12-.67 2.7 44.22 11.18.68-2.69-8.22-2.08 11.68-46.21 28.21 7.14-11.69 46.2-8.36-2.11-.68 2.69 44.36 11.22.68-2.69-8.36-2.12 23.73-93.83 8.36 2.12.68-2.7-44.36-11.22-.68 2.7zM1906.37 2506.05l-11.72-2.49-57.38 90.44-6.72-1.43-.58 2.71 21.87 4.66.58-2.72-10.72-2.22 17.59-28.54 28.31 6 3.86 33.11-10.15-2.16-.58 2.71 46.76 10 .57-2.72-6.57-1.4Zm-45.13 57.51 21.42-34.6 4.46 40.11ZM2021.16 2535.15q-9.54-8.15-31.28-12l-42.32-7.5-.48 2.73 9.35 1.66-16.89 95.3-9.36-1.66-.48 2.73 55.42 9.83.48-2.74-18-3.19 6.84-38.58 1.15.21q21.74 3.86 34.93-.19 14.15-4.47 17.32-22.32 2.86-16.13-6.68-24.28Zm-22.28 15.13-1.22 6.91q-2.36 13.24-6.71 18.56t-13 3.78l-3-.53 9.58-54 3.88.69q8.2 1.45 10.43 6.89t.04 17.7ZM2108.88 2548.13q-9.81-7.83-31.67-11l-42.55-6.09-.39 2.75 9.41 1.35L2030 2631l-9.41-1.35-.39 2.75 55.72 8 .39-2.75-18.11-2.65 5.55-38.78 1.15.16q21.85 3.12 34.9-1.36 14-4.93 16.57-22.88 2.31-16.14-7.49-24.01Zm-21.77 15.87-1 6.94q-1.9 13.32-6.08 18.78t-12.86 4.21l-3-.43 7.76-54.28 3.91.56q8.25 1.18 10.65 6.55t.62 17.67Z"/><path fill="#fff" d="m2179.82 2552.2 14.68 1.6-25.59 43.24-14.81-47.64 9.45 1.03.25-2.33-46.51-5.07-.25 2.33 6.83.74 19.12 54-4.95 45.34-8.86-.96-.3 2.76 46.07 5.02.3-2.76-8.87-.97 5.25-48.1 27.23-46.15 9.59 1.04.26-2.33-28.63-3.12-.26 2.33zM2323.37 2563l8.03.42-3.64 70.51-34.47-75.26-40.3-2.08-.14 2.77 8.03.42-4.99 96.65-8.03-.42-.14 2.78 20 1.03.14-2.77-8.03-.42 4.73-91.69 45.21 97.05 20.44 1.06 5.13-99.43 8.03.41.14-2.77-20-1.03-.14 2.77zM2413.26 2653.06q-9.51 8-23 7.83h-5.55l.43-46.93h3.51q7.76.07 12.17 4.79t6.94 15.71h2.49l.4-43.27h-2.2q-2 8.76-6.7 13.9a15 15 0 0 1-11.6 5.09h-5l.41-45.17h5.12q13 .12 19.69 5.67t12.67 20.36h2.64l-1.2-29-76-.7v3.21l8.63.08-.89 95.9-8.62-.08v3.22l80.26.74 1.46-31.86h-2.92a40.86 40.86 0 0 1-13.14 20.51ZM2552.53 2557.32l.14 2.77 14.75-.72-14.13 69.93-25.15-68 8.61-.42-.13-2.78-45.27 2.23.14 2.77 8.32-.41 10.13 27.46-10.05 42.65-27.24-68.77 10.22-.5-.13-2.78-47.46 2.34.13 2.77 6.87-.34 41.76 99.09 12.7-.62 15.74-66.94 24.86 64.94 12.99-.64 21.91-102.22 9.63-.47-.13-2.78-29.21 1.44zM2715.6 2540.24l-.33-2.32-28.51 4.03.32 2.31 14.62-2.06-14.16 48.21-26.08-42.53 9.41-1.33-.33-2.31-46.32 6.54.33 2.31 6.8-.96 31.82 47.63 6.38 45.17-8.83 1.24.39 2.75 45.89-6.47-.39-2.76-8.83 1.25-6.77-47.91 15.04-51.44 9.55-1.35zM2807.73 2591.3a40.76 40.76 0 0 1-8.65 22.75q-7.66 9.73-20.86 12.36l-5.45 1.09-9.19-46 3.44-.68q7.61-1.53 12.89 2.19t10 14l2.43-.48-8.47-42.44-2.15.43q-.15 9-3.72 15a15 15 0 0 1-10.31 7.35l-4.87 1-8.85-44.3 5-1q12.75-2.55 20.42 1.51t16.61 17.22l2.58-.52-7.11-28.1-74.55 14.89.63 3.16 8.45-1.73 18.79 94.05-8.46 1.69.63 3.15 78.71-15.72-5.1-31.48ZM2915.92 2593.44l-61.46-87.57-11.59 3.09-10.16 106.65-6.64 1.77.72 2.68 21.61-5.76-.71-2.68-10.6 2.82 2.75-33.41 28-7.45 18.44 27.76-10 2.67.72 2.69 46.19-12.31-.71-2.69Zm-75.64-15.86 3.42-40.55 22.15 33.74ZM3015.63 2541.66q1.32 7.76.65 10.53a4.72 4.72 0 0 1-3.14 3.65 3.32 3.32 0 0 1-4.11-1.35q-1.62-2.22-4.12-9.4l-2.55-7.32q-4.18-12-10.38-15.58t-17.91-1.2l-.14-.42q11.54-5.09 15.58-12.15t0-18.8q-4.08-11.73-12.59-14.81-3.95-1.56-12.12-.81t-26.13 7l-41.69 14.52.91 2.62 9-3.12 31.81 91.4-9 3.12.91 2.63 44.88-15.62-.92-2.63-9 3.13-16.1-46.26 7.31-2.54q5.38-1.87 8.64 1t5.94 10.63l3.51 10.08q5.1 14.64 11.71 18.29t17.94-.28q11.31-3.95 13.72-9.27t-.16-17.59Zm-52.63-23.92q-2.11 6.15-10 8.89l-4.42 1.54-14.8-42.53 4.55-1.58q8-2.79 12.9-.54t8.68 13.15l1.39 4q3.77 10.92 1.7 17.07Z"/></g></svg>